<svg xmlns="http://www.w3.org/2000/svg" viewBox="0 0 167.71 167.71"><defs><style>.cls-1{fill:#aaa29e;stroke:#aaa19d;stroke-miterlimit:10;}</style></defs><g id="Object"><path class="cls-1" d="M68.48,104.56c-5.78,0-10.3-6.89-10.3-15.69s4.52-15.7,10.3-15.7,10.29,6.9,10.29,15.7S74.25,104.56,68.48,104.56Zm0-26.53C65.91,78,63,82.66,63,88.87s2.88,10.84,5.45,10.84,5.44-4.64,5.44-10.84S71.05,78,68.48,78Z" transform="translate(-23.98 -24.28)"/><path class="cls-1" d="M147.19,104.56c-5.78,0-10.3-6.89-10.3-15.69s4.52-15.7,10.3-15.7,10.3,6.9,10.3,15.7S153,104.56,147.19,104.56Zm0-26.53c-2.57,0-5.45,4.63-5.45,10.84s2.88,10.84,5.45,10.84,5.44-4.64,5.44-10.84S149.76,78,147.19,78Z" transform="translate(-23.98 -24.28)"/><path class="cls-1" d="M108.2,155.69c-16.15,0-30.83-8.55-37.4-21.77a12,12,0,0,1,10.75-17.39h53.3a12,12,0,0,1,10.75,17.39C139,147.14,124.34,155.69,108.2,155.69Zm-26.65-34.3a7.16,7.16,0,0,0-6.4,10.37c5.76,11.59,18.73,19.07,33.05,19.07s27.29-7.48,33.05-19.07a7.16,7.16,0,0,0-6.4-10.37Z" transform="translate(-23.98 -24.28)"/><path class="cls-1" d="M107.83,191.49a83.36,83.36,0,1,1,83.35-83.36A83.45,83.45,0,0,1,107.83,191.49Zm0-161.85a78.5,78.5,0,1,0,78.5,78.49A78.59,78.59,0,0,0,107.83,29.64Z" transform="translate(-23.98 -24.28)"/></g></svg>