<svg xmlns="http://www.w3.org/2000/svg" viewBox="0 0 166.71 166.71"><defs><style>.cls-1{fill:#aaa19d;}</style></defs><g id="Object"><path class="cls-1" d="M651.63,697.15c-13.84,0-26.43-7.34-32.07-18.69A10.56,10.56,0,0,1,629,663.18h45.25a10.56,10.56,0,0,1,9.45,15.28C678.07,689.81,665.47,697.15,651.63,697.15ZM629,668a5.72,5.72,0,0,0-5.11,8.27c4.83,9.72,15.72,16,27.73,16s22.9-6.27,27.73-16a5.71,5.71,0,0,0-5.1-8.27Z" transform="translate(-568.28 -568.58)"/><path class="cls-1" d="M621.84,652.05a15.33,15.33,0,0,1-6.26-1.54,53,53,0,0,1-12-7.27h0a36.5,36.5,0,0,1-3-2.7c-3.65-3.7-9.41-11-7-18.29,1.86-5.77,8.27-7.43,13.2-7.1a20.38,20.38,0,0,1,7.39,2l.19.09.8.39c.65-4.51,2.75-7.91,6-9.69,4.42-2.39,9.71-1.29,13.48,2.79,4.29,4.65,5.21,11.41,2.65,19.53a77.33,77.33,0,0,1-5,12.19c-.23.44-.45.89-.67,1.35a22.83,22.83,0,0,1-3.22,5.26A8.49,8.49,0,0,1,621.84,652.05ZM605.55,620c-3,0-6.41,1-7.32,3.78-1.68,5.18,4.08,11.56,5.89,13.4a34.77,34.77,0,0,0,2.58,2.36h0a47.83,47.83,0,0,0,10.87,6.58c5.06,2.28,6.7.41,7.24-.2a18.81,18.81,0,0,0,2.5-4.19c.23-.48.47-1,.71-1.44a70.88,70.88,0,0,0,4.7-11.42c2-6.46,1.5-11.43-1.59-14.78-1.76-1.91-4.68-3.38-7.6-1.81s-3.57,5.44-3.67,7.59a3.62,3.62,0,0,1-5.57,2.87,18.89,18.89,0,0,0-2-1.05l-.19-.09a15.52,15.52,0,0,0-5.63-1.57C606.18,620,605.86,620,605.55,620Z" transform="translate(-568.28 -568.58)"/><path class="cls-1" d="M681.42,652.05a8.5,8.5,0,0,1-6.61-3,22.78,22.78,0,0,1-3.21-5.26c-.22-.46-.44-.91-.67-1.35a76.82,76.82,0,0,1-5-12.19c-2.55-8.13-1.63-14.88,2.66-19.53,3.76-4.08,9-5.18,13.47-2.79,3.29,1.78,5.39,5.18,6,9.69l.8-.39.19-.09a20.37,20.37,0,0,1,7.4-2c4.93-.33,11.33,1.33,13.2,7.1,2.36,7.29-3.41,14.59-7,18.29a36.65,36.65,0,0,1-3,2.7,52.7,52.7,0,0,1-12,7.27A15.41,15.41,0,0,1,681.42,652.05Zm-4.25-40.47a7.13,7.13,0,0,0-5,2.47c-3.09,3.35-3.63,8.32-1.6,14.78a72.19,72.19,0,0,0,4.7,11.42c.25.48.48,1,.72,1.44a19.18,19.18,0,0,0,2.49,4.19c.54.62,2.18,2.48,7.25.2a47.9,47.9,0,0,0,10.86-6.58h0c.92-.76,1.79-1.56,2.59-2.36,1.8-1.84,7.57-8.22,5.89-13.4-1.08-3.33-5.7-3.92-8.25-3.75a15.46,15.46,0,0,0-5.63,1.57l-.2.09a18.89,18.89,0,0,0-2,1.05,3.62,3.62,0,0,1-5.56-2.87c-.11-2.15-.73-6-3.67-7.59A5.43,5.43,0,0,0,677.17,611.58Z" transform="translate(-568.28 -568.58)"/><path class="cls-1" d="M651.63,735.29A83.36,83.36,0,1,1,735,651.94,83.44,83.44,0,0,1,651.63,735.29Zm0-161.85a78.5,78.5,0,1,0,78.5,78.5A78.59,78.59,0,0,0,651.63,573.44Z" transform="translate(-568.28 -568.58)"/></g></svg>