<svg xmlns="http://www.w3.org/2000/svg" viewBox="0 0 166.71 166.71"><defs><style>.cls-1{fill:#aaa19d;}</style></defs><g id="Object"><path class="cls-1" d="M832.9,372.75a83.35,83.35,0,1,1,83.35-83.35A83.44,83.44,0,0,1,832.9,372.75Zm0-161.85a78.5,78.5,0,1,0,78.5,78.5A78.6,78.6,0,0,0,832.9,210.9Z" transform="translate(-749.55 -206.05)"/><path class="cls-1" d="M874.46,290.63H855a17.45,17.45,0,0,1-17.43-17.43v-1.5h-9.7v1.5a17.45,17.45,0,0,1-17.43,17.43H790.88a17.45,17.45,0,0,1-17.43-17.43V262.43A17.45,17.45,0,0,1,790.88,245h19.51a17.32,17.32,0,0,1,17.18,14.57h10.2A17.32,17.32,0,0,1,855,245h19.51a17.45,17.45,0,0,1,17.43,17.43V273.2A17.45,17.45,0,0,1,874.46,290.63ZM823,266.85h19.42v6.35A12.59,12.59,0,0,0,855,285.78h19.51A12.59,12.59,0,0,0,887,273.2V262.43a12.59,12.59,0,0,0-12.57-12.57H855a12.5,12.5,0,0,0-12.55,12.2l-.07,2.36H823l-.07-2.36a12.5,12.5,0,0,0-12.55-12.2H790.88a12.59,12.59,0,0,0-12.57,12.57V273.2a12.59,12.59,0,0,0,12.57,12.58h19.51A12.59,12.59,0,0,0,823,273.2Z" transform="translate(-749.55 -206.05)"/><path class="cls-1" d="M822,336.19c-8.33,0-16.34-.51-23.3-4.12a24.18,24.18,0,0,1-5.45-3.85,12.21,12.21,0,0,1-3.37-5.92,7.67,7.67,0,0,1,1.28-6.56,8.5,8.5,0,0,1,6.17-2.85c2.22-.17,4.52-.18,6.47-.16h0c1.51,0,3,.07,4.54.12,1.28,0,2.55.08,3.81.1A169.23,169.23,0,0,0,841,311.39l1.21-.18c4.78-.74,10.19-1.58,14.05-3.85a48,48,0,0,0,5.09-3.62c.95-.75,1.94-1.52,3-2.25l.48-.35c2.1-1.55,6-4.45,9.28-2.17.78.54,2,1.87,1.48,4.68-1.21,6.35-5,12.54-11.6,18.91-5.47,5.27-10.93,8.69-16.7,10.45a81.36,81.36,0,0,1-23,3.17Zm-19.71-18.61c-1.47,0-3.06,0-4.57.15a4,4,0,0,0-2.78,1.06,2.9,2.9,0,0,0-.34,2.4,7.5,7.5,0,0,0,2,3.51,19.32,19.32,0,0,0,4.34,3.06c6.59,3.42,14.75,3.63,23.24,3.56a76.53,76.53,0,0,0,21.61-2.95c5-1.53,9.84-4.57,14.74-9.31,5.7-5.5,9-10.71,10.12-15.91a16.39,16.39,0,0,0-3,1.9l-.53.39c-1,.67-1.86,1.38-2.82,2.13a51.05,51.05,0,0,1-5.61,4c-4.67,2.74-10.56,3.65-15.76,4.46l-1.2.19a175,175,0,0,1-29.62,1.61c-1.28,0-2.58-.06-3.88-.1-1.48-.05-3-.1-4.45-.11Z" transform="translate(-749.55 -206.05)"/><rect class="cls-1" x="765.64" y="250.01" width="4.85" height="22.1" transform="translate(-709.18 413.52) rotate(-45)"/><rect class="cls-1" x="886.69" y="258.03" width="22.1" height="4.85" transform="translate(-670.77 505.04) rotate(-45)"/></g></svg>