<svg xmlns="http://www.w3.org/2000/svg" viewBox="0 0 2975.3 1434.16"><defs><style>.cls-1{fill:#fff;}.cls-2{font-size:66.37px;fill:#231815;font-family:YeongdoOTF-Rg, YeongdoOTF Rg-KSCpc-EUC-H;}.cls-3{fill:#aaa29e;stroke:#aaa19d;stroke-miterlimit:10;}.cls-4{fill:#aaa19d;}</style></defs><g id="BG"><rect class="cls-1" x="1853.3" y="312.16" width="1122" height="1122"/><text class="cls-2" transform="translate(2219.51 998.97)">옛술의 전당</text></g><g id="Object"><path class="cls-3" d="M-163-62.15c-5.77,0-10.3-6.89-10.3-15.69s4.53-15.69,10.3-15.69,10.3,6.89,10.3,15.69S-157.2-62.15-163-62.15Zm0-26.53c-2.57,0-5.44,4.64-5.44,10.84S-165.55-67-163-67s5.45-4.64,5.45-10.84S-160.41-88.68-163-88.68Z" transform="translate(426.98 142.42)"/><path class="cls-3" d="M-84.27-62.15c-5.77,0-10.3-6.89-10.3-15.69S-90-93.53-84.27-93.53-74-86.64-74-77.84-78.49-62.15-84.27-62.15Zm0-26.53c-2.57,0-5.44,4.64-5.44,10.84S-86.84-67-84.27-67s5.45-4.64,5.45-10.84S-81.7-88.68-84.27-88.68Z" transform="translate(426.98 142.42)"/><path class="cls-3" d="M-123.26-11c-16.14,0-30.82-8.54-37.39-21.77a12,12,0,0,1,.54-11.7,11.92,11.92,0,0,1,10.2-5.68H-96.6a11.92,11.92,0,0,1,10.2,5.68,12,12,0,0,1,.54,11.7C-92.43-19.56-107.11-11-123.26-11Zm-26.65-34.3A7.14,7.14,0,0,0-156-41.94a7.14,7.14,0,0,0-.32,7c5.76,11.59,18.74,19.08,33.05,19.08S-96-23.36-90.2-34.95a7.17,7.17,0,0,0-.33-7,7.11,7.11,0,0,0-6.07-3.38Z" transform="translate(426.98 142.42)"/><path class="cls-3" d="M-123.62,24.78A83.45,83.45,0,0,1-207-58.57a83.45,83.45,0,0,1,83.36-83.35A83.44,83.44,0,0,1-40.27-58.57,83.44,83.44,0,0,1-123.62,24.78Zm0-161.85a78.58,78.58,0,0,0-78.5,78.5,78.59,78.59,0,0,0,78.5,78.5,78.6,78.6,0,0,0,78.5-78.5A78.59,78.59,0,0,0-123.62-137.07Z" transform="translate(426.98 142.42)"/><path class="cls-4" d="M431,111.33c-5.78,0-10.3-6.89-10.3-15.69s4.52-15.7,10.3-15.7,10.3,6.9,10.3,15.7S436.78,111.33,431,111.33Zm0-26.53c-2.57,0-5.44,4.63-5.44,10.84s2.87,10.84,5.44,10.84,5.44-4.64,5.44-10.84S433.58,84.8,431,84.8Z" transform="translate(426.98 142.42)"/><path class="cls-4" d="M509.72,111.33c-5.77,0-10.3-6.89-10.3-15.69s4.53-15.7,10.3-15.7,10.3,6.9,10.3,15.7S515.5,111.33,509.72,111.33Zm0-26.53c-2.57,0-5.44,4.63-5.44,10.84s2.87,10.84,5.44,10.84,5.45-4.64,5.45-10.84S512.29,84.8,509.72,84.8Z" transform="translate(426.98 142.42)"/><path class="cls-4" d="M470.37,191.49a83.36,83.36,0,1,1,83.35-83.36A83.45,83.45,0,0,1,470.37,191.49Zm0-161.85a78.5,78.5,0,1,0,78.49,78.49A78.58,78.58,0,0,0,470.37,29.64Z" transform="translate(426.98 142.42)"/><path class="cls-4" d="M632,110.62H588.29a2.43,2.43,0,0,1,0-4.85H632a2.43,2.43,0,0,1,0,4.85Z" transform="translate(426.98 142.42)"/><path class="cls-4" d="M715,110.62H671.29a2.43,2.43,0,1,1,0-4.85H715a2.43,2.43,0,1,1,0,4.85Z" transform="translate(426.98 142.42)"/><path class="cls-4" d="M632,120.82H588.29a2.43,2.43,0,0,1,0-4.86H632a2.43,2.43,0,0,1,0,4.86Z" transform="translate(426.98 142.42)"/><path class="cls-4" d="M715,120.82H671.29a2.43,2.43,0,1,1,0-4.86H715a2.43,2.43,0,0,1,0,4.86Z" transform="translate(426.98 142.42)"/><path class="cls-4" d="M701,94.28c-10.44,0-11.57-9.56-11.57-13.67,0-6.2,2.71-29.29,10.84-29.29,3.47,0,6.3,3.89,8.67,11.88a69.28,69.28,0,0,1,2.82,17.41C711.77,89.68,708.15,94.28,701,94.28Zm-.72-38.06c-2.37,1.37-6,14.6-6,24.39,0,7.81,3.59,8.81,6.72,8.81,2.85,0,5.9-.68,5.9-8.81C706.91,71.3,702.81,57.55,700.29,56.22Z" transform="translate(426.98 142.42)"/><path class="cls-4" d="M651.63,191.49A83.36,83.36,0,1,1,735,108.13,83.45,83.45,0,0,1,651.63,191.49Zm0-161.85a78.5,78.5,0,1,0,78.5,78.49A78.59,78.59,0,0,0,651.63,29.64Z" transform="translate(426.98 142.42)"/><path class="cls-4" d="M815.54,100.79a2.42,2.42,0,0,1-1.72-.71L791.64,77.9a2.43,2.43,0,0,1,3.43-3.43l22.18,22.18a2.43,2.43,0,0,1-1.71,4.14Z" transform="translate(426.98 142.42)"/><path class="cls-4" d="M793.36,100.79a2.46,2.46,0,0,1-1.72-.71,2.42,2.42,0,0,1,0-3.43l22.18-22.18a2.43,2.43,0,1,1,3.43,3.43l-22.18,22.18A2.42,2.42,0,0,1,793.36,100.79Z" transform="translate(426.98 142.42)"/><path class="cls-4" d="M874.12,100.79a2.42,2.42,0,0,1-1.72-.71L850.22,77.9a2.43,2.43,0,1,1,3.43-3.43l22.18,22.18a2.43,2.43,0,0,1-1.71,4.14Z" transform="translate(426.98 142.42)"/><path class="cls-4" d="M851.94,100.79a2.46,2.46,0,0,1-1.72-.71,2.42,2.42,0,0,1,0-3.43L872.4,74.47a2.43,2.43,0,0,1,3.43,3.43l-22.18,22.18A2.42,2.42,0,0,1,851.94,100.79Z" transform="translate(426.98 142.42)"/><path class="cls-4" d="M871.3,139.55c-4.73,0-9.33-3.33-11.17-4.66-3.35-2.43-7.9-4.88-10.6-2.84a10,10,0,0,0-1.85,2.21,15.05,15.05,0,0,1-2.57,3c-4,3.4-9.69,2.39-13.66.32a45.56,45.56,0,0,1-4.55-2.85,31.19,31.19,0,0,0-5.21-3.1,14.28,14.28,0,0,0-14,1.85c-.5.39-1,.83-1.51,1.3a16.39,16.39,0,0,1-4.73,3.26c-5.67,2.25-10.54-1.26-14.85-4.37-2.5-1.8-5.09-3.67-7.66-4.35a9.37,9.37,0,0,0-10.76,5.92,2.43,2.43,0,1,1-4.63-1.47,14.1,14.1,0,0,1,16.62-9.14c3.45.91,6.41,3,9.27,5.11,4.37,3.15,7.24,5,10.21,3.79a12.16,12.16,0,0,0,3.3-2.38c.55-.49,1.13-1,1.75-1.49a19,19,0,0,1,18.83-2.5,34.75,34.75,0,0,1,6.06,3.57,42.35,42.35,0,0,0,4.06,2.55c2.65,1.38,6.23,2,8.28.27a11,11,0,0,0,1.71-2.1,14,14,0,0,1,2.91-3.3c2.79-2.13,7.91-3.37,16.37,2.77,4.9,3.54,8.49,4.56,10.67,3a10.21,10.21,0,0,0,1.85-2c.36-.46.73-.93,1.13-1.37,3.33-3.71,8.82-5.26,14.31-4s9.83,4.93,11.28,9.71a2.42,2.42,0,1,1-4.64,1.41c-1-3.1-3.89-5.55-7.68-6.39s-7.5.14-9.66,2.56c-.33.36-.63.74-.93,1.13a14.09,14.09,0,0,1-2.86,2.94A8.72,8.72,0,0,1,871.3,139.55Z" transform="translate(426.98 142.42)"/><path class="cls-4" d="M832.9,191.49a83.36,83.36,0,1,1,83.35-83.36A83.45,83.45,0,0,1,832.9,191.49Zm0-161.85a78.5,78.5,0,1,0,78.5,78.49A78.59,78.59,0,0,0,832.9,29.64Z" transform="translate(426.98 142.42)"/><path class="cls-4" d="M249.74,275.91c-5.77,0-10.29-6.9-10.29-15.7s4.52-15.69,10.29-15.69,10.3,6.89,10.3,15.69S255.52,275.91,249.74,275.91Zm0-26.54c-2.57,0-5.44,4.64-5.44,10.84s2.87,10.84,5.44,10.84,5.45-4.63,5.45-10.84S252.31,249.37,249.74,249.37Z" transform="translate(426.98 142.42)"/><path class="cls-4" d="M328.45,275.91c-5.77,0-10.29-6.9-10.29-15.7s4.52-15.69,10.29-15.69,10.3,6.89,10.3,15.69S334.23,275.91,328.45,275.91Zm0-26.54c-2.57,0-5.44,4.64-5.44,10.84s2.87,10.84,5.44,10.84,5.45-4.63,5.45-10.84S331,249.37,328.45,249.37Z" transform="translate(426.98 142.42)"/><path class="cls-4" d="M326.46,323.14H251.74a18.19,18.19,0,0,1-18-15.73h-.16v-4.85h.13a18.2,18.2,0,0,1,18-16h74.72a18.19,18.19,0,0,1,18.16,18.16V305A18.18,18.18,0,0,1,326.46,323.14Zm-15.92-4.85h12.58V307.41H310.54Zm-17.43,0h12.58V307.41H293.11Zm-17.43,0h12.58V307.41H275.68Zm-17.44,0h12.58V307.41H258.24Zm-19.58-10.88a13.32,13.32,0,0,0,13.08,10.88h1.65V307.41Zm89.32,0V318.2a13.31,13.31,0,0,0,11.56-10.79Zm0-4.85h11.6a13.33,13.33,0,0,0-11.6-11Zm-17.44,0h12.58V291.45H310.54Zm-17.43,0h12.58V291.45H293.11Zm-17.43,0h12.58V291.45H275.68Zm-17.44,0h12.58V291.45H258.24Zm-19.63,0h14.78V291.45h-1.65A13.33,13.33,0,0,0,238.61,302.56Z" transform="translate(426.98 142.42)"/><path class="cls-4" d="M289.1,372.75a83.35,83.35,0,1,1,83.35-83.35A83.44,83.44,0,0,1,289.1,372.75Zm0-161.85a78.5,78.5,0,1,0,78.5,78.5A78.59,78.59,0,0,0,289.1,210.9Z" transform="translate(426.98 142.42)"/><path class="cls-4" d="M439.91,308.7c-6.93,0-12.36-8.42-12.36-19.16s5.43-19.17,12.36-19.17,12.36,8.42,12.36,19.17S446.84,308.7,439.91,308.7Zm0-33.47c-3.55,0-7.5,5.87-7.5,14.31s3.95,14.31,7.5,14.31,7.5-5.88,7.5-14.31S443.46,275.23,439.91,275.23Z" transform="translate(426.98 142.42)"/><path class="cls-4" d="M505.55,308.7c-6.93,0-12.36-8.42-12.36-19.16s5.43-19.17,12.36-19.17,12.36,8.42,12.36,19.17S512.48,308.7,505.55,308.7Zm0-33.47c-3.55,0-7.5,5.87-7.5,14.31s3.95,14.31,7.5,14.31,7.5-5.88,7.5-14.31S509.1,275.23,505.55,275.23Z" transform="translate(426.98 142.42)"/><path class="cls-4" d="M518.23,265.55c-3,0-10.08-1.15-10.08-11.83,0-3.27,1.77-24.89,9.47-24.89,7.4,0,10,20.49,10,24.89C527.62,263.5,522.51,265.55,518.23,265.55Zm-.59-31.72c-1.9,1.88-4.63,12.39-4.63,19.89,0,6.15,2.64,7,5.22,7,1.81,0,4.54,0,4.54-7C522.77,246.44,519.7,235.7,517.64,233.83Z" transform="translate(426.98 142.42)"/><path class="cls-4" d="M471.49,246.87c-2.51,0-8.37-1-8.37-9.74a49.94,49.94,0,0,1,1.64-11.5c1-3.61,2.66-8.4,6.26-8.4,6.67,0,8.32,17.42,8.32,19.9C479.34,245.18,475.07,246.87,471.49,246.87Zm-.44-24.31c-1.37,2.27-3.08,9.42-3.08,14.57,0,4.89,2.29,4.89,3.52,4.89s3,0,3-4.89S472.54,224.85,471.05,222.56Z" transform="translate(426.98 142.42)"/><path class="cls-4" d="M420.3,263.79c-2.51,0-8.36-.94-8.36-9.72a49.7,49.7,0,0,1,1.64-11.48c1-3.6,2.66-8.38,6.25-8.38,6.66,0,8.31,17.38,8.31,19.86C428.14,262.11,423.88,263.79,420.3,263.79Zm-.44-24.25c-1.36,2.27-3.06,9.4-3.06,14.53,0,4.87,2.28,4.87,3.5,4.87s3,0,3-4.87S421.34,241.83,419.86,239.54Z" transform="translate(426.98 142.42)"/><path class="cls-4" d="M447,253.43c-4.08,0-6.51-2.78-6.51-7.44,0-.15.46-14.42,6.18-14.42s6.47,14.27,6.47,14.42C453.16,252.71,448.87,253.43,447,253.43Zm-.28-15.59a29.68,29.68,0,0,0-1.37,8.15c0,2.59.87,2.59,1.65,2.59s1.29,0,1.29-2.59A27.55,27.55,0,0,0,446.74,237.84Z" transform="translate(426.98 142.42)"/><path class="cls-4" d="M490.46,260.55c-4.07,0-6.51-2.78-6.51-7.44,0-.15.46-14.41,6.19-14.41s6.47,14.26,6.47,14.41C496.61,259.83,492.31,260.55,490.46,260.55ZM490.18,245a29.55,29.55,0,0,0-1.37,8.14c0,2.59.88,2.59,1.65,2.59s1.29,0,1.29-2.59A27.42,27.42,0,0,0,490.18,245Z" transform="translate(426.98 142.42)"/><path class="cls-4" d="M403.27,329.3a2.48,2.48,0,0,1-1.08-.26,2.43,2.43,0,0,1-1.09-3.26l6.76-13.51a2.43,2.43,0,1,1,4.34,2.17L405.44,328A2.43,2.43,0,0,1,403.27,329.3Z" transform="translate(426.98 142.42)"/><path class="cls-4" d="M414.26,329.3a2.49,2.49,0,0,1-1.09-.26,2.43,2.43,0,0,1-1.08-3.26l6.75-13.51a2.43,2.43,0,0,1,4.35,2.17L416.43,328A2.44,2.44,0,0,1,414.26,329.3Z" transform="translate(426.98 142.42)"/><path class="cls-4" d="M425.24,329.3a2.49,2.49,0,0,1-1.09-.26,2.44,2.44,0,0,1-1.08-3.26l6.76-13.51a2.43,2.43,0,1,1,4.34,2.17L427.41,328A2.43,2.43,0,0,1,425.24,329.3Z" transform="translate(426.98 142.42)"/><path class="cls-4" d="M512.61,329.3a2.48,2.48,0,0,1-1.08-.26,2.44,2.44,0,0,1-1.09-3.26l6.76-13.51a2.43,2.43,0,1,1,4.34,2.17L514.79,328A2.45,2.45,0,0,1,512.61,329.3Z" transform="translate(426.98 142.42)"/><path class="cls-4" d="M523.6,329.3a2.49,2.49,0,0,1-1.09-.26,2.43,2.43,0,0,1-1.08-3.26l6.76-13.51a2.43,2.43,0,1,1,4.34,2.17L525.77,328A2.44,2.44,0,0,1,523.6,329.3Z" transform="translate(426.98 142.42)"/><path class="cls-4" d="M534.58,329.3a2.44,2.44,0,0,1-2.17-3.52l6.76-13.51a2.43,2.43,0,1,1,4.34,2.17L536.75,328A2.43,2.43,0,0,1,534.58,329.3Z" transform="translate(426.98 142.42)"/><path class="cls-4" d="M470.37,372.75a83.35,83.35,0,1,1,83.35-83.35A83.45,83.45,0,0,1,470.37,372.75Zm0-161.85a78.5,78.5,0,1,0,78.49,78.5A78.59,78.59,0,0,0,470.37,210.9Z" transform="translate(426.98 142.42)"/><path class="cls-4" d="M84.71,445a21.05,21.05,0,1,1,21-21.05A21.07,21.07,0,0,1,84.71,445Zm0-37.24A16.19,16.19,0,1,0,100.9,424,16.21,16.21,0,0,0,84.71,407.76Z" transform="translate(426.98 142.42)"/><path class="cls-4" d="M141.47,434.49A10.54,10.54,0,1,1,152,424,10.55,10.55,0,0,1,141.47,434.49Zm0-16.22a5.68,5.68,0,1,0,5.68,5.68A5.69,5.69,0,0,0,141.47,418.27Z" transform="translate(426.98 142.42)"/><path class="cls-4" d="M117.87,535.25c-10.67,0-19-17.51-19-39.87s8.36-39.88,19-39.88,19,17.52,19,39.88S128.54,535.25,117.87,535.25Zm0-74.9c-8.35,0-14.17,18.46-14.17,35s5.82,35,14.17,35,14.17-18.46,14.17-35S126.22,460.35,117.87,460.35Z" transform="translate(426.98 142.42)"/><path class="cls-4" d="M107.83,554a83.35,83.35,0,1,1,83.35-83.35A83.44,83.44,0,0,1,107.83,554Zm0-161.85a78.5,78.5,0,1,0,78.5,78.5A78.59,78.59,0,0,0,107.83,392.17Z" transform="translate(426.98 142.42)"/><path class="cls-4" d="M863.13,508.43l-.32,0-24.42-3.19a52.13,52.13,0,0,0-13.67,0l-24,3.19a8.84,8.84,0,0,1-7.06-3.48,8.69,8.69,0,0,1-1.52-7.57c4.44-16.55,20.81-28.1,39.8-28.1s35.36,11.55,39.8,28.1a8.66,8.66,0,0,1-1.52,7.57A8.84,8.84,0,0,1,863.13,508.43Zm-31.5-8.5a57.08,57.08,0,0,1,7.39.48l24.25,3.17a4,4,0,0,0,3.06-1.59,3.83,3.83,0,0,0,.68-3.36c-3.87-14.42-18.31-24.5-35.11-24.5s-31.24,10.08-35.11,24.5a3.87,3.87,0,0,0,.68,3.36,4,4,0,0,0,3.06,1.58l23.54-3.14A56.25,56.25,0,0,1,831.63,499.93Z" transform="translate(426.98 142.42)"/><path class="cls-4" d="M797.22,458.14a12.62,12.62,0,1,1,12.62-12.62A12.63,12.63,0,0,1,797.22,458.14Zm0-20.38a7.77,7.77,0,1,0,7.76,7.76A7.78,7.78,0,0,0,797.22,437.76Z" transform="translate(426.98 142.42)"/><path class="cls-4" d="M868.58,458.14a12.62,12.62,0,1,1,12.62-12.62A12.63,12.63,0,0,1,868.58,458.14Zm0-20.38a7.77,7.77,0,1,0,7.77,7.76A7.77,7.77,0,0,0,868.58,437.76Z" transform="translate(426.98 142.42)"/><path class="cls-4" d="M832.9,554a83.35,83.35,0,1,1,83.35-83.35A83.44,83.44,0,0,1,832.9,554Zm0-161.85a78.5,78.5,0,1,0,78.5,78.5A78.59,78.59,0,0,0,832.9,392.17Z" transform="translate(426.98 142.42)"/><path class="cls-4" d="M-110.19,1024.8c-13.84,0-26.43-7.34-32.07-18.69a10.52,10.52,0,0,1,.47-10.29,10.5,10.5,0,0,1,9-5h45.25a10.48,10.48,0,0,1,9,5,10.49,10.49,0,0,1,.48,10.29C-83.75,1017.46-96.34,1024.8-110.19,1024.8Zm-22.62-29.12a5.67,5.67,0,0,0-4.85,2.7,5.7,5.7,0,0,0-.26,5.57c4.83,9.72,15.72,16,27.73,16s22.9-6.27,27.73-16a5.67,5.67,0,0,0-.25-5.57,5.67,5.67,0,0,0-4.85-2.7Z" transform="translate(426.98 142.42)"/><path class="cls-4" d="M-140,979.7a15.36,15.36,0,0,1-6.26-1.54,53,53,0,0,1-12-7.27h0c-1-.87-2-1.77-2.95-2.7-3.65-3.7-9.41-11-7.05-18.29,1.87-5.78,8.27-7.43,13.2-7.1a20.48,20.48,0,0,1,7.4,2l.18.09.8.38c.65-4.5,2.75-7.9,6-9.68,4.42-2.39,9.71-1.29,13.48,2.79,4.29,4.65,5.21,11.4,2.66,19.52a77.48,77.48,0,0,1-5,12.2c-.23.44-.45.89-.67,1.35a23.21,23.21,0,0,1-3.21,5.26A8.52,8.52,0,0,1-140,979.7Zm-16.29-32.09c-3,0-6.41,1-7.32,3.78-1.68,5.18,4.08,11.56,5.89,13.39a31.28,31.28,0,0,0,2.59,2.37h0a47.9,47.9,0,0,0,10.86,6.58c5.06,2.28,6.7.41,7.24-.2a18.81,18.81,0,0,0,2.5-4.19c.23-.48.47-1,.71-1.44a71.85,71.85,0,0,0,4.71-11.42c2-6.46,1.49-11.43-1.6-14.78-1.76-1.91-4.68-3.38-7.6-1.81s-3.57,5.44-3.67,7.59a3.61,3.61,0,0,1-2,3,3.64,3.64,0,0,1-3.61-.17,18.89,18.89,0,0,0-2-1.05l-.19-.1a15.69,15.69,0,0,0-5.63-1.56C-155.64,947.62-156,947.61-156.27,947.61Z" transform="translate(426.98 142.42)"/><path class="cls-4" d="M-80.4,979.7a8.5,8.5,0,0,1-6.61-3,23.21,23.21,0,0,1-3.21-5.26c-.22-.46-.44-.91-.67-1.35a76.93,76.93,0,0,1-5-12.2c-2.55-8.12-1.63-14.87,2.66-19.52,3.76-4.08,9-5.18,13.48-2.79,3.28,1.78,5.38,5.18,6,9.68l.8-.38.19-.09a20.43,20.43,0,0,1,7.4-2c4.93-.33,11.33,1.32,13.2,7.1,2.36,7.29-3.4,14.59-7.05,18.29a38.6,38.6,0,0,1-3,2.7,52.7,52.7,0,0,1-12,7.27A15.41,15.41,0,0,1-80.4,979.7Zm-4.25-40.47a7.13,7.13,0,0,0-5,2.47c-3.09,3.35-3.62,8.32-1.6,14.78a72.19,72.19,0,0,0,4.7,11.42c.25.48.48,1,.72,1.44a19.18,19.18,0,0,0,2.49,4.19c.55.61,2.18,2.48,7.25.2a47.9,47.9,0,0,0,10.86-6.58h0a34.86,34.86,0,0,0,2.59-2.37c1.81-1.83,7.57-8.21,5.89-13.39-1.08-3.33-5.7-3.92-8.25-3.75a15.64,15.64,0,0,0-5.63,1.56l-.2.1a19.93,19.93,0,0,0-2,1.05,3.62,3.62,0,0,1-3.6.17,3.61,3.61,0,0,1-2-3c-.11-2.15-.72-6-3.67-7.59A5.43,5.43,0,0,0-84.65,939.23Z" transform="translate(426.98 142.42)"/><path class="cls-4" d="M-110.19,1062.94a83.45,83.45,0,0,1-83.35-83.36,83.44,83.44,0,0,1,83.35-83.35,83.45,83.45,0,0,1,83.36,83.35A83.45,83.45,0,0,1-110.19,1062.94Zm0-161.85a78.59,78.59,0,0,0-78.5,78.49,78.59,78.59,0,0,0,78.5,78.5,78.58,78.58,0,0,0,78.5-78.5A78.58,78.58,0,0,0-110.19,901.09Z" transform="translate(426.98 142.42)"/><path class="cls-4" d="M72.15,834.54a12.62,12.62,0,1,1,12.62-12.62A12.63,12.63,0,0,1,72.15,834.54Zm0-20.39a7.77,7.77,0,1,0,7.76,7.77A7.78,7.78,0,0,0,72.15,814.15Z" transform="translate(426.98 142.42)"/><path class="cls-4" d="M143.51,834.54a12.62,12.62,0,1,1,12.62-12.62A12.64,12.64,0,0,1,143.51,834.54Zm0-20.39a7.77,7.77,0,1,0,7.77,7.77A7.78,7.78,0,0,0,143.51,814.15Z" transform="translate(426.98 142.42)"/><path class="cls-4" d="M165.35,857.84h-115a2.43,2.43,0,1,1,0-4.86h115a2.43,2.43,0,0,1,0,4.86Z" transform="translate(426.98 142.42)"/><path class="cls-4" d="M107.83,916.92a83.35,83.35,0,1,1,83.35-83.35A83.44,83.44,0,0,1,107.83,916.92Zm0-161.85a78.5,78.5,0,1,0,78.5,78.5A78.59,78.59,0,0,0,107.83,755.07Z" transform="translate(426.98 142.42)"/><path class="cls-4" d="M978.48,806.07A12.55,12.55,0,1,1,991,793.53,12.56,12.56,0,0,1,978.48,806.07Zm0-20.39a7.85,7.85,0,1,0,7.85,7.85A7.85,7.85,0,0,0,978.48,785.68Z" transform="translate(426.98 142.42)"/><path class="cls-4" d="M1049.85,806.07a12.55,12.55,0,1,1,12.54-12.54A12.56,12.56,0,0,1,1049.85,806.07Zm0-20.39a7.85,7.85,0,1,0,7.84,7.85A7.85,7.85,0,0,0,1049.85,785.68Z" transform="translate(426.98 142.42)"/><path class="cls-4" d="M1014.17,886.15a37.3,37.3,0,1,1,37.29-37.29A37.34,37.34,0,0,1,1014.17,886.15Zm0-69.89a32.6,32.6,0,1,0,32.6,32.6A32.63,32.63,0,0,0,1014.17,816.26Z" transform="translate(426.98 142.42)"/><path class="cls-4" d="M1014.17,916.92a83.35,83.35,0,1,1,83.35-83.35A83.44,83.44,0,0,1,1014.17,916.92Zm0-161.85a78.5,78.5,0,1,0,78.5,78.5A78.58,78.58,0,0,0,1014.17,755.07Z" transform="translate(426.98 142.42)"/><path class="cls-4" d="M-302,613.22h-59.46a2.43,2.43,0,0,1-2.43-2.43,2.43,2.43,0,0,1,2.43-2.43H-302a2.43,2.43,0,0,1,2.43,2.43A2.43,2.43,0,0,1-302,613.22Z" transform="translate(426.98 142.42)"/><path class="cls-4" d="M-368.83,579.27A25.24,25.24,0,0,1-394,554.07a25.24,25.24,0,0,1,25.21-25.21,25.24,25.24,0,0,1,25.2,25.21A25.24,25.24,0,0,1-368.83,579.27Zm0-45.56a20.38,20.38,0,0,0-20.35,20.36,20.37,20.37,0,0,0,20.35,20.35,20.37,20.37,0,0,0,20.35-20.35A20.38,20.38,0,0,0-368.83,533.71Z" transform="translate(426.98 142.42)"/><path class="cls-4" d="M-368.83,566.69a12.64,12.64,0,0,1-12.62-12.62,12.63,12.63,0,0,1,12.62-12.62,12.63,12.63,0,0,1,12.62,12.62A12.64,12.64,0,0,1-368.83,566.69Zm0-20.39a7.77,7.77,0,0,0-7.77,7.77,7.77,7.77,0,0,0,7.77,7.76,7.77,7.77,0,0,0,7.76-7.76A7.77,7.77,0,0,0-368.83,546.3Z" transform="translate(426.98 142.42)"/><path class="cls-4" d="M-294.73,579.27a25.24,25.24,0,0,1-25.21-25.2,25.24,25.24,0,0,1,25.21-25.21,25.23,25.23,0,0,1,25.2,25.21A25.23,25.23,0,0,1-294.73,579.27Zm0-45.56a20.38,20.38,0,0,0-20.35,20.36,20.37,20.37,0,0,0,20.35,20.35,20.37,20.37,0,0,0,20.35-20.35A20.38,20.38,0,0,0-294.73,533.71Z" transform="translate(426.98 142.42)"/><path class="cls-4" d="M-294.73,566.69a12.64,12.64,0,0,1-12.62-12.62,12.63,12.63,0,0,1,12.62-12.62,12.63,12.63,0,0,1,12.62,12.62A12.64,12.64,0,0,1-294.73,566.69Zm0-20.39a7.78,7.78,0,0,0-7.77,7.77,7.78,7.78,0,0,0,7.77,7.76,7.77,7.77,0,0,0,7.76-7.76A7.77,7.77,0,0,0-294.73,546.3Z" transform="translate(426.98 142.42)"/><path class="cls-4" d="M-331.78,656.79a83.44,83.44,0,0,1-83.35-83.35,83.45,83.45,0,0,1,83.35-83.36,83.45,83.45,0,0,1,83.35,83.36A83.44,83.44,0,0,1-331.78,656.79Zm0-161.85a78.58,78.58,0,0,0-78.5,78.5,78.59,78.59,0,0,0,78.5,78.5,78.6,78.6,0,0,0,78.5-78.5A78.59,78.59,0,0,0-331.78,494.94Z" transform="translate(426.98 142.42)"/><path class="cls-4" d="M978.48,1004.82a12.62,12.62,0,1,1,12.62-12.61A12.63,12.63,0,0,1,978.48,1004.82Zm0-20.38a7.77,7.77,0,1,0,7.77,7.77A7.77,7.77,0,0,0,978.48,984.44Z" transform="translate(426.98 142.42)"/><path class="cls-4" d="M1049.85,1004.82a12.62,12.62,0,1,1,12.62-12.61A12.63,12.63,0,0,1,1049.85,1004.82Zm0-20.38a7.77,7.77,0,1,0,7.77,7.77A7.78,7.78,0,0,0,1049.85,984.44Z" transform="translate(426.98 142.42)"/><path class="cls-4" d="M1018.31,1048.13a7.57,7.57,0,0,1-5-2A15.78,15.78,0,0,1,1010,1041l-2.1-4.41a5,5,0,0,1,2.84-6.82h0l9.51-3.31a5.69,5.69,0,0,1,4.25.19,21,21,0,0,1,6.42,4.53c2.91,3,3.46,6.54,1.43,9.1a6,6,0,0,1-4.31,2.19,8.21,8.21,0,0,1-3.44-.53l0,.21a6.9,6.9,0,0,1-3.71,5.41A5.88,5.88,0,0,1,1018.31,1048.13Zm-6-13.74a.13.13,0,0,0-.07.06l2.11,4.5a11.66,11.66,0,0,0,2.27,3.6,2.29,2.29,0,0,0,2.16.65,2.25,2.25,0,0,0,1-1.69,5.77,5.77,0,0,0,0-.86,3.92,3.92,0,0,1,1.87-3.45,3.87,3.87,0,0,1,3.88-.1,3.89,3.89,0,0,0,2.17.56,1.16,1.16,0,0,0,.81-.35c.65-.83-.94-2.54-1.13-2.73a15.8,15.8,0,0,0-4.9-3.46.92.92,0,0,0-.67,0l-9.5,3.31Z" transform="translate(426.98 142.42)"/><path class="cls-4" d="M1014.17,1097.22a83.36,83.36,0,1,1,83.35-83.36A83.45,83.45,0,0,1,1014.17,1097.22Zm0-161.85a78.5,78.5,0,1,0,78.5,78.49A78.58,78.58,0,0,0,1014.17,935.37Z" transform="translate(426.98 142.42)"/><path class="cls-4" d="M651.63,554A83.35,83.35,0,1,1,735,470.67,83.44,83.44,0,0,1,651.63,554Zm0-161.85a78.5,78.5,0,1,0,78.5,78.5A78.59,78.59,0,0,0,651.63,392.17Z" transform="translate(426.98 142.42)"/><path class="cls-4" d="M689,505.29H614.27a18.18,18.18,0,0,1-18-15.73h-.17v-4.85h.14a18.18,18.18,0,0,1,18-16H689a18.19,18.19,0,0,1,18.16,18.16v.24A18.18,18.18,0,0,1,689,505.29Zm-15.91-4.85h12.58V489.56H673.08Zm-17.44,0h12.58V489.56H655.64Zm-17.43,0h12.58V489.56H638.21Zm-17.43,0h12.58V489.56H620.78Zm-19.59-10.88a13.33,13.33,0,0,0,13.08,10.88h1.65V489.56Zm89.32,0v10.79a13.31,13.31,0,0,0,11.56-10.79Zm0-4.85h11.61a13.34,13.34,0,0,0-11.61-11Zm-17.43,0h12.58V473.6H673.08Zm-17.44,0h12.58V473.6H655.64Zm-17.43,0h12.58V473.6H638.21Zm-17.43,0h12.58V473.6H620.78Zm-19.63,0h14.77V473.6h-1.65A13.31,13.31,0,0,0,601.15,484.71Z" transform="translate(426.98 142.42)"/><path class="cls-4" d="M600.75,447.21a2.42,2.42,0,0,1-1.59-4.25c.17-.16,18.18-15.47,34.71.06a2.43,2.43,0,0,1-3.32,3.54c-5.6-5.26-12-6.87-19-4.77a27.27,27.27,0,0,0-9.16,4.83A2.42,2.42,0,0,1,600.75,447.21Z" transform="translate(426.98 142.42)"/><path class="cls-4" d="M671.06,447.21a2.42,2.42,0,0,1-1.6-4.25c.18-.16,18.19-15.47,34.72.06a2.43,2.43,0,1,1-3.32,3.54c-5.6-5.26-12-6.87-19.05-4.77a27.27,27.27,0,0,0-9.16,4.83A2.42,2.42,0,0,1,671.06,447.21Z" transform="translate(426.98 142.42)"/><path class="cls-4" d="M651.63,916.92A83.35,83.35,0,1,1,735,833.57,83.44,83.44,0,0,1,651.63,916.92Zm0-161.85a78.5,78.5,0,1,0,78.5,78.5A78.59,78.59,0,0,0,651.63,755.07Z" transform="translate(426.98 142.42)"/><path class="cls-4" d="M651.63,878.51c-22.16,0-42.15-12.52-49.74-31.15a13.57,13.57,0,0,1,12.54-18.69h74.4a13.56,13.56,0,0,1,12.54,18.69C693.78,866,673.79,878.51,651.63,878.51Zm-37.2-45a8.7,8.7,0,0,0-8,12c6.85,16.83,25,28.13,45.24,28.13s38.39-11.3,45.25-28.13a8.7,8.7,0,0,0-8-12Z" transform="translate(426.98 142.42)"/><path class="cls-4" d="M600.75,805.51a2.43,2.43,0,0,1-1.59-4.26c.17-.15,18.18-15.47,34.71.06a2.43,2.43,0,1,1-3.32,3.54c-5.6-5.26-12-6.86-19-4.77a27.47,27.47,0,0,0-9.16,4.83A2.43,2.43,0,0,1,600.75,805.51Z" transform="translate(426.98 142.42)"/><path class="cls-4" d="M671.06,805.51a2.43,2.43,0,0,1-1.6-4.26c.18-.15,18.19-15.47,34.72.06a2.43,2.43,0,1,1-3.32,3.54c-5.6-5.26-12-6.86-19.05-4.77a27.47,27.47,0,0,0-9.16,4.83A2.43,2.43,0,0,1,671.06,805.51Z" transform="translate(426.98 142.42)"/><path class="cls-4" d="M832.9,916.92a83.35,83.35,0,1,1,83.35-83.35A83.44,83.44,0,0,1,832.9,916.92Zm0-161.85a78.5,78.5,0,1,0,78.5,78.5A78.59,78.59,0,0,0,832.9,755.07Z" transform="translate(426.98 142.42)"/><path class="cls-4" d="M834.38,866.58A144.81,144.81,0,0,1,810.45,865c-8.4-1.4-28-6-28.69-18a5.06,5.06,0,0,1,1.61-4.16c2.63-2.44,7.46-2.17,12.3-1.53l.46.07c4.18.53,8.24,1,12.07,1.38h0c24.86,2.48,45.65,2.09,65.42-1.22,4-.68,7.78.76,9.5,3.68,1.58,2.67,1.13,5.91-1.23,8.89-1.89,2.38-4.91,4.59-9.25,6.76-9.7,4.85-20.66,5.56-30.1,5.61h-2.45C838.2,866.56,836.29,866.58,834.38,866.58Zm-44.31-20.79c-2.24,0-3.08.37-3.4.67,0,0-.08.07-.07.32.4,7,13.53,11.61,24.65,13.47,9.44,1.58,19.29,1.51,28.81,1.45l2.46,0c8.88,0,19.14-.69,28-5.09,3.64-1.82,6.2-3.65,7.62-5.44.61-.77,1.54-2.24.85-3.41-.54-.92-2.19-1.75-4.51-1.35-20.22,3.38-41.42,3.79-66.71,1.26h0c-3.88-.39-8-.86-12.21-1.4l-.48-.06A38,38,0,0,0,790.07,845.79Z" transform="translate(426.98 142.42)"/><path class="cls-4" d="M798.71,808.55c-10.19,0-18.17-6.78-18.29-6.89A2.42,2.42,0,1,1,783.6,798h0c.61.51,14.91,12.56,28.21.06a2.43,2.43,0,0,1,3.33,3.54C809.59,806.82,803.87,808.55,798.71,808.55Z" transform="translate(426.98 142.42)"/><path class="cls-4" d="M869,808.55c-10.19,0-18.17-6.78-18.29-6.89a2.42,2.42,0,1,1,3.18-3.66h0c.6.51,14.91,12.56,28.21.06a2.43,2.43,0,0,1,3.33,3.54C879.9,806.82,874.17,808.55,869,808.55Z" transform="translate(426.98 142.42)"/><path class="cls-4" d="M953,141.89a2.49,2.49,0,0,1-1.09-.26,2.44,2.44,0,0,1-1.08-3.26l7.76-15.53A2.43,2.43,0,0,1,963,125l-7.77,15.53A2.44,2.44,0,0,1,953,141.89Z" transform="translate(426.98 142.42)"/><path class="cls-4" d="M965.63,141.89a2.49,2.49,0,0,1-1.09-.26,2.44,2.44,0,0,1-1.08-3.26l7.76-15.53a2.43,2.43,0,0,1,4.35,2.17l-7.77,15.53A2.44,2.44,0,0,1,965.63,141.89Z" transform="translate(426.98 142.42)"/><path class="cls-4" d="M978.25,141.89a2.49,2.49,0,0,1-1.09-.26,2.44,2.44,0,0,1-1.08-3.26l7.76-15.53a2.43,2.43,0,0,1,4.35,2.17l-7.77,15.53A2.44,2.44,0,0,1,978.25,141.89Z" transform="translate(426.98 142.42)"/><path class="cls-4" d="M1042.32,141.89a2.44,2.44,0,0,1-2.17-3.52l7.77-15.53a2.43,2.43,0,1,1,4.34,2.17l-7.77,15.53A2.43,2.43,0,0,1,1042.32,141.89Z" transform="translate(426.98 142.42)"/><path class="cls-4" d="M1054.94,141.89a2.44,2.44,0,0,1-2.17-3.52l7.77-15.53a2.43,2.43,0,1,1,4.34,2.17l-7.77,15.53A2.43,2.43,0,0,1,1054.94,141.89Z" transform="translate(426.98 142.42)"/><path class="cls-4" d="M1067.56,141.89a2.44,2.44,0,0,1-2.17-3.52l7.77-15.53a2.43,2.43,0,1,1,4.34,2.17l-7.77,15.53A2.43,2.43,0,0,1,1067.56,141.89Z" transform="translate(426.98 142.42)"/><path class="cls-4" d="M1014.17,191.49a83.36,83.36,0,1,1,83.35-83.36A83.45,83.45,0,0,1,1014.17,191.49Zm0-161.85a78.5,78.5,0,1,0,78.5,78.49A78.58,78.58,0,0,0,1014.17,29.64Z" transform="translate(426.98 142.42)"/><path class="cls-4" d="M966,112.83a2.82,2.82,0,0,1-2-4.81l14.64-14.63a.77.77,0,0,0,.21-.52.73.73,0,0,0-.21-.52L964,77.61a2.82,2.82,0,0,1,4-4l14.74,14.74a6.39,6.39,0,0,1,0,9L968,112A2.8,2.8,0,0,1,966,112.83Z" transform="translate(426.98 142.42)"/><path class="cls-4" d="M1062.3,112.83a2.8,2.8,0,0,1-2-.82l-14.64-14.64a6.36,6.36,0,0,1,0-9l14.74-14.74a2.82,2.82,0,0,1,4,4l-14.74,14.74a.69.69,0,0,0-.21.52.72.72,0,0,0,.21.52L1064.29,108a2.82,2.82,0,0,1-2,4.81Z" transform="translate(426.98 142.42)"/><path class="cls-4" d="M644.68,1058.73a16.51,16.51,0,0,1-13.8-7.29,15.62,15.62,0,0,1-2.44-9.61,2.43,2.43,0,0,1,4.84.4,10.58,10.58,0,0,0,1.69,6.58,11.13,11.13,0,0,0,20.39-4.14,7.36,7.36,0,0,1,3.29-4.81,7.63,7.63,0,0,1,5.88-1,13.33,13.33,0,0,0,5.61.13c3.87-.78,7.05-3.71,7.72-7.13.61-3.08-.69-6.68-3.47-9.63s-6.43-4.9-10-6.84a2.43,2.43,0,1,1,2.31-4.27c3.74,2,8,4.33,11.23,7.78,3.86,4.08,5.62,9.28,4.7,13.9-1,5.29-5.78,9.79-11.52,11a18.05,18.05,0,0,1-7.66-.16,2.84,2.84,0,0,0-2.16.38,2.64,2.64,0,0,0-1.16,1.69,16.35,16.35,0,0,1-8.68,11.59A15.45,15.45,0,0,1,644.68,1058.73Z" transform="translate(426.98 142.42)"/><path class="cls-4" d="M651.63,1097.22A83.36,83.36,0,1,1,735,1013.87,83.44,83.44,0,0,1,651.63,1097.22Zm0-161.85a78.5,78.5,0,1,0,78.5,78.5A78.59,78.59,0,0,0,651.63,935.37Z" transform="translate(426.98 142.42)"/><path class="cls-4" d="M615.13,1001a12.62,12.62,0,1,1,12.61-12.62A12.63,12.63,0,0,1,615.13,1001Zm0-20.39a7.77,7.77,0,1,0,7.76,7.77A7.77,7.77,0,0,0,615.13,980.59Z" transform="translate(426.98 142.42)"/><path class="cls-4" d="M698.33,1003.22a2.56,2.56,0,0,1-.93-.18l-23.06-9.55a3.9,3.9,0,0,1-2.58-2.73,3.75,3.75,0,0,1,1.44-3.45,150.29,150.29,0,0,1,17.35-13.41,2.43,2.43,0,1,1,2.68,4.05,144.58,144.58,0,0,0-15.39,11.74l21.42,8.86a2.43,2.43,0,0,1-.93,4.67Z" transform="translate(426.98 142.42)"/><path class="cls-4" d="M-80.75,599.52l-.32,0-24.42-3.19a52.57,52.57,0,0,0-13.67,0l-24,3.19a8.82,8.82,0,0,1-7.05-3.48,8.63,8.63,0,0,1-1.52-7.57c4.43-16.55,20.8-28.1,39.79-28.1s35.37,11.55,39.8,28.1A8.63,8.63,0,0,1-73.7,596,8.81,8.81,0,0,1-80.75,599.52Zm-31.49-8.5a57,57,0,0,1,7.38.48l24.25,3.17a4,4,0,0,0,3.06-1.59,3.8,3.8,0,0,0,.68-3.36c-3.86-14.42-18.3-24.5-35.11-24.5s-31.24,10.08-35.11,24.5a3.87,3.87,0,0,0,.69,3.37,4.05,4.05,0,0,0,3.06,1.58l23.54-3.15A56.25,56.25,0,0,1-112.24,591Z" transform="translate(426.98 142.42)"/><path class="cls-4" d="M-112,644.35A83.45,83.45,0,0,1-195.33,561,83.45,83.45,0,0,1-112,477.65,83.44,83.44,0,0,1-28.62,561,83.44,83.44,0,0,1-112,644.35Zm0-161.85a78.59,78.59,0,0,0-78.5,78.5A78.59,78.59,0,0,0-112,639.5,78.59,78.59,0,0,0-33.48,561,78.59,78.59,0,0,0-112,482.5Z" transform="translate(426.98 142.42)"/><path class="cls-4" d="M-157.19,552.21a27.77,27.77,0,0,1-6.69-.8,2.41,2.41,0,0,1-1.77-2.93,2.42,2.42,0,0,1,2.93-1.78,26.24,26.24,0,0,0,20.93-4.28,33.3,33.3,0,0,0,12.5-18.12,2.42,2.42,0,0,1,3-1.66,2.41,2.41,0,0,1,1.66,3A38,38,0,0,1-139,546.39,31.9,31.9,0,0,1-157.19,552.21Z" transform="translate(426.98 142.42)"/><path class="cls-4" d="M-66.76,552.21a31.92,31.92,0,0,1-18.18-5.82,38,38,0,0,1-14.38-20.75,2.42,2.42,0,0,1,1.66-3,2.42,2.42,0,0,1,3,1.66,33.3,33.3,0,0,0,12.5,18.12,26.2,26.2,0,0,0,20.93,4.28,2.42,2.42,0,0,1,2.93,1.78,2.41,2.41,0,0,1-1.77,2.93A27.77,27.77,0,0,1-66.76,552.21Z" transform="translate(426.98 142.42)"/><path class="cls-4" d="M-123.26,234.21a83.45,83.45,0,0,1-83.35-83.36A83.44,83.44,0,0,1-123.26,67.5,83.45,83.45,0,0,1-39.9,150.85,83.46,83.46,0,0,1-123.26,234.21Zm0-161.85a78.58,78.58,0,0,0-78.49,78.49,78.58,78.58,0,0,0,78.49,78.5,78.58,78.58,0,0,0,78.5-78.5A78.58,78.58,0,0,0-123.26,72.36Z" transform="translate(426.98 142.42)"/><path class="cls-4" d="M-142.68,138.77a2.41,2.41,0,0,1-1.66-.66c-13.31-12.5-27.61-.45-28.21.07a2.42,2.42,0,0,1-3.42-.25,2.42,2.42,0,0,1,.24-3.42c.18-.15,18.18-15.46,34.71.07a2.42,2.42,0,0,1,.11,3.43A2.42,2.42,0,0,1-142.68,138.77Z" transform="translate(426.98 142.42)"/><path class="cls-4" d="M-72.37,138.77a2.4,2.4,0,0,1-1.66-.66c-13.31-12.5-27.61-.45-28.21.07a2.42,2.42,0,0,1-3.42-.25,2.42,2.42,0,0,1,.24-3.42c.18-.15,18.18-15.46,34.71.07A2.43,2.43,0,0,1-70.6,138,2.42,2.42,0,0,1-72.37,138.77Z" transform="translate(426.98 142.42)"/><path class="cls-4" d="M-121.76,201.61a121.29,121.29,0,0,1-18.69-1.44c-13.7-2.17-25.2-6.62-33.27-12.87-8.25-6.4-13-14.6-14-24.36a2.43,2.43,0,0,1,2.16-2.67,2.44,2.44,0,0,1,2.67,2.16c.88,8.4,5,15.47,12.14,21,17.19,13.34,47.2,14.68,63.18,12.33,21.69-3.2,38.15-16.28,44-35a2.42,2.42,0,0,1,3-1.59,2.43,2.43,0,0,1,1.59,3c-6.45,20.53-24.38,34.86-48,38.33A103.71,103.71,0,0,1-121.76,201.61Z" transform="translate(426.98 142.42)"/><path class="cls-4" d="M651.63,372.75A83.35,83.35,0,1,1,735,289.4,83.44,83.44,0,0,1,651.63,372.75Zm0-161.85a78.5,78.5,0,1,0,78.5,78.5A78.6,78.6,0,0,0,651.63,210.9Z" transform="translate(426.98 142.42)"/><path class="cls-4" d="M678.86,320.66a4.38,4.38,0,0,1-1.55-.28h0l-14.54-5.32a33.29,33.29,0,0,0-23,0l-14.26,5.27a4.45,4.45,0,0,1-4.37-.71,4.5,4.5,0,0,1-1.63-4.17c2.05-14.36,15.75-25.18,31.87-25.18s29.83,10.83,31.88,25.19a4.53,4.53,0,0,1-4.44,5.17Zm-27.52-12.48a38.22,38.22,0,0,1,13.09,2.32l14,5.11c-2-11.7-13.47-20.45-27-20.45s-25,8.74-27,20.44l13.69-5.06A38.14,38.14,0,0,1,651.34,308.18Z" transform="translate(426.98 142.42)"/><path class="cls-4" d="M621.27,280.92c-4.77,0-8.5-5.56-8.5-12.66s3.73-12.67,8.5-12.67,8.5,5.56,8.5,12.67S626,280.92,621.27,280.92Zm0-20.47c-1.49,0-3.65,3-3.65,7.81s2.16,7.8,3.65,7.8,3.64-3,3.64-7.8S622.75,260.45,621.27,260.45Z" transform="translate(426.98 142.42)"/><path class="cls-4" d="M682,280.92c-4.77,0-8.5-5.56-8.5-12.66s3.73-12.67,8.5-12.67,8.5,5.56,8.5,12.67S686.76,280.92,682,280.92Zm0-20.47c-1.49,0-3.65,3-3.65,7.81s2.16,7.8,3.65,7.8,3.64-3,3.64-7.8S683.48,260.45,682,260.45Z" transform="translate(426.98 142.42)"/><path class="cls-4" d="M631.7,263.84a2.44,2.44,0,0,1-2.25-1.5,29.2,29.2,0,0,0-24.89-17.53,2.43,2.43,0,1,1,.23-4.85,33.77,33.77,0,0,1,29.15,20.53,2.42,2.42,0,0,1-1.32,3.16A2.3,2.3,0,0,1,631.7,263.84Z" transform="translate(426.98 142.42)"/><path class="cls-4" d="M671.57,263.84a2.38,2.38,0,0,1-.93-.19,2.42,2.42,0,0,1-1.32-3.16A33.78,33.78,0,0,1,698.48,240a2.4,2.4,0,0,1,2.54,2.31,2.43,2.43,0,0,1-2.31,2.54,29.21,29.21,0,0,0-24.9,17.53A2.43,2.43,0,0,1,671.57,263.84Z" transform="translate(426.98 142.42)"/><path class="cls-4" d="M-343.63,451.25A83.44,83.44,0,0,1-427,367.9a83.44,83.44,0,0,1,83.35-83.35,83.44,83.44,0,0,1,83.35,83.35A83.44,83.44,0,0,1-343.63,451.25Zm0-161.85a78.6,78.6,0,0,0-78.5,78.5,78.6,78.6,0,0,0,78.5,78.5,78.59,78.59,0,0,0,78.5-78.5A78.59,78.59,0,0,0-343.63,289.4Z" transform="translate(426.98 142.42)"/><path class="cls-4" d="M-302.07,369.13h-19.5A17.44,17.44,0,0,1-339,351.7v-1.5h-9.71v1.5a17.45,17.45,0,0,1-17.43,17.43h-19.51a17.45,17.45,0,0,1-17.43-17.43V340.93a17.45,17.45,0,0,1,17.43-17.43h19.51A17.33,17.33,0,0,1-349,338.06h10.2a17.33,17.33,0,0,1,17.19-14.56h19.5a17.45,17.45,0,0,1,17.43,17.43V351.7A17.45,17.45,0,0,1-302.07,369.13Zm-51.5-23.79h19.42v6.36a12.59,12.59,0,0,0,12.58,12.57h19.5A12.59,12.59,0,0,0-289.5,351.7V340.93a12.59,12.59,0,0,0-12.57-12.57h-19.5a12.5,12.5,0,0,0-12.56,12.2l-.07,2.36h-19.32l-.07-2.36a12.5,12.5,0,0,0-12.55-12.2h-19.51a12.59,12.59,0,0,0-12.57,12.57V351.7a12.59,12.59,0,0,0,12.57,12.57h19.51a12.59,12.59,0,0,0,12.57-12.57Z" transform="translate(426.98 142.42)"/><path class="cls-4" d="M-354.49,414.69c-8.33,0-16.34-.51-23.3-4.13a23.83,23.83,0,0,1-5.45-3.84,12.2,12.2,0,0,1-3.37-5.93,7.66,7.66,0,0,1,1.28-6.55,8.52,8.52,0,0,1,6.17-2.85c2.22-.18,4.52-.18,6.47-.16h0c1.51,0,3,.07,4.54.11,1.28.05,2.55.09,3.81.11a169.23,169.23,0,0,0,28.78-1.56l1.21-.19c4.78-.74,10.19-1.58,14.06-3.84a49,49,0,0,0,5.08-3.62c1-.75,1.95-1.52,3-2.25l.48-.35c2.1-1.55,6-4.45,9.28-2.17.78.54,2,1.87,1.48,4.68-1.21,6.35-5,12.54-11.6,18.9-5.47,5.28-10.93,8.7-16.7,10.46a81.67,81.67,0,0,1-23,3.17Zm-19.71-18.61c-1.47,0-3.06,0-4.57.15a4,4,0,0,0-2.78,1.06,2.88,2.88,0,0,0-.34,2.39,7.49,7.49,0,0,0,2,3.52,19.16,19.16,0,0,0,4.35,3.06c6.58,3.41,14.74,3.63,23.23,3.56a76.9,76.9,0,0,0,21.61-2.95c5-1.53,9.84-4.58,14.74-9.31,5.7-5.5,9-10.71,10.12-15.91a15.85,15.85,0,0,0-3,1.9l-.53.39c-.95.67-1.86,1.38-2.82,2.13a51.05,51.05,0,0,1-5.61,4c-4.67,2.74-10.56,3.65-15.76,4.46l-1.2.19a174.92,174.92,0,0,1-29.62,1.61c-1.28,0-2.58-.06-3.88-.1-1.48-.05-3-.1-4.44-.12Z" transform="translate(426.98 142.42)"/><rect class="cls-4" x="-410.89" y="328.51" width="4.85" height="22.1" transform="translate(67.24 -46.95) rotate(-45)"/><rect class="cls-4" x="-289.84" y="336.53" width="22.1" height="4.85" transform="translate(105.64 44.57) rotate(-45)"/><path class="cls-4" d="M1014.17,372.76a83.36,83.36,0,1,1,83.35-83.36A83.45,83.45,0,0,1,1014.17,372.76Zm0-161.86a78.5,78.5,0,1,0,78.5,78.5A78.59,78.59,0,0,0,1014.17,210.9Z" transform="translate(426.98 142.42)"/><path class="cls-4" d="M978.49,292.89a12.62,12.62,0,1,1,12.62-12.62A12.63,12.63,0,0,1,978.49,292.89Zm0-20.38a7.77,7.77,0,1,0,7.76,7.76A7.77,7.77,0,0,0,978.49,272.51Z" transform="translate(426.98 142.42)"/><path class="cls-4" d="M1049.85,292.89a12.62,12.62,0,1,1,12.62-12.62A12.63,12.63,0,0,1,1049.85,292.89Zm0-20.38a7.77,7.77,0,1,0,7.77,7.76A7.77,7.77,0,0,0,1049.85,272.51Z" transform="translate(426.98 142.42)"/><path class="cls-4" d="M948.92,273.8a2.42,2.42,0,0,1-1.09-4.59,220.43,220.43,0,0,1,43.93-16.54,2.43,2.43,0,0,1,1.22,4.7,215.78,215.78,0,0,0-43,16.17A2.36,2.36,0,0,1,948.92,273.8Z" transform="translate(426.98 142.42)"/><path class="cls-4" d="M1079.41,273.8a2.39,2.39,0,0,1-1.09-.26,215.47,215.47,0,0,0-43-16.17,2.43,2.43,0,1,1,1.22-4.7,220.43,220.43,0,0,1,43.93,16.54,2.43,2.43,0,0,1-1.1,4.59Z" transform="translate(426.98 142.42)"/><path class="cls-4" d="M1069.4,326.21a2.41,2.41,0,0,1-1.72-.71,41.5,41.5,0,0,0-12.72-8.28c-11.84-5.28-25.91-7.65-43-7.26-20.87.48-38.27,5-51.73,13.51a2.43,2.43,0,0,1-2.59-4.11c14.21-9,32.45-13.75,54.21-14.25,17.83-.42,32.58,2.1,45.09,7.68a46.26,46.26,0,0,1,14.17,9.28,2.42,2.42,0,0,1-1.71,4.14Z" transform="translate(426.98 142.42)"/><path class="cls-4" d="M1014.17,554a83.35,83.35,0,1,1,83.35-83.35A83.44,83.44,0,0,1,1014.17,554Zm0-161.85a78.5,78.5,0,1,0,78.5,78.5A78.58,78.58,0,0,0,1014.17,392.17Z" transform="translate(426.98 142.42)"/><path class="cls-4" d="M1050.78,514.18c-4.55,0-9-3.19-10.72-4.47-3.16-2.28-7.45-4.61-10-2.7a9.63,9.63,0,0,0-1.75,2.08,14.1,14.1,0,0,1-2.46,2.91c-3.87,3.28-9.33,2.32-13.15.33a42.59,42.59,0,0,1-4.34-2.73,30.22,30.22,0,0,0-4.95-2.94,13.48,13.48,0,0,0-13.19,1.75c-.47.37-.94.79-1.44,1.23a15.48,15.48,0,0,1-4.54,3.13c-5.46,2.17-10.13-1.2-14.26-4.17-2.38-1.72-4.83-3.49-7.27-4.13A8.82,8.82,0,0,0,952.62,510a2.42,2.42,0,1,1-4.62-1.47,13.55,13.55,0,0,1,16-8.79c3.3.87,6.13,2.91,8.87,4.89,4.13,3,6.84,4.71,9.63,3.6a11.87,11.87,0,0,0,3.11-2.24c.53-.48,1.08-1,1.67-1.43a18.2,18.2,0,0,1,18.06-2.4,32.84,32.84,0,0,1,5.81,3.41A38.25,38.25,0,0,0,1015,508c2.49,1.3,5.86,1.89,7.77.27a10.15,10.15,0,0,0,1.61-2,13,13,0,0,1,2.8-3.17c2.69-2,7.62-3.26,15.74,2.63,4.63,3.35,8,4.32,10,2.88a9.57,9.57,0,0,0,1.74-1.86c.35-.45.7-.89,1.08-1.31,3.2-3.57,8.47-5.06,13.76-3.89s9.43,4.74,10.83,9.33a2.43,2.43,0,0,1-4.65,1.42c-.88-2.92-3.66-5.22-7.23-6s-7.07.12-9.1,2.39c-.31.35-.59.71-.88,1.07a13.53,13.53,0,0,1-2.75,2.83A8.43,8.43,0,0,1,1050.78,514.18Z" transform="translate(426.98 142.42)"/><path class="cls-4" d="M957.54,455.2a2.51,2.51,0,0,1-1.28-.36,2.47,2.47,0,0,1-.79-3.37c1.24-2,3.56-2.38,4.81-2.57A58.13,58.13,0,0,0,980,442.56a34.87,34.87,0,0,0,14.22-14.08,2.42,2.42,0,1,1,4.3,2.23,39.64,39.64,0,0,1-16.15,16.09A63,63,0,0,1,961,453.7a4.3,4.3,0,0,0-1.44.36A2.35,2.35,0,0,1,957.54,455.2Z" transform="translate(426.98 142.42)"/><path class="cls-4" d="M1070.8,455.15a2.41,2.41,0,0,1-2-1.11,4.85,4.85,0,0,0-1.42-.34,63,63,0,0,1-21.37-6.9,39.7,39.7,0,0,1-16.15-16.09,2.43,2.43,0,1,1,4.31-2.23,34.84,34.84,0,0,0,14.21,14.08,58.27,58.27,0,0,0,19.73,6.34c1.25.19,3.57.54,4.8,2.57a2.42,2.42,0,0,1-.82,3.33A2.37,2.37,0,0,1,1070.8,455.15Z" transform="translate(426.98 142.42)"/><path class="cls-4" d="M975.13,487.81a2.39,2.39,0,0,1-2-1.07,2.43,2.43,0,0,1,.66-3.37A199.11,199.11,0,0,0,993,468.72a5.22,5.22,0,0,0,.86-.87,5,5,0,0,0-1.54-.69l-15.63-4.83a2.42,2.42,0,1,1,1.44-4.63l15.62,4.83c3.18,1,4.87,2.63,5,4.91.19,2.52-1.78,4.22-2.62,4.95a201.2,201.2,0,0,1-19.68,15A2.38,2.38,0,0,1,975.13,487.81ZM994,468h0Z" transform="translate(426.98 142.42)"/><path class="cls-4" d="M1053.2,487.81a2.42,2.42,0,0,1-1.35-.41,202.79,202.79,0,0,1-19.68-15c-.84-.73-2.8-2.43-2.62-4.95.17-2.28,1.87-3.93,5-4.91l15.62-4.83a2.42,2.42,0,0,1,1.43,4.63L1036,467.16a5.14,5.14,0,0,0-1.55.69,5.45,5.45,0,0,0,.87.87,199,199,0,0,0,19.2,14.65,2.42,2.42,0,0,1-1.35,4.44Z" transform="translate(426.98 142.42)"/><path class="cls-4" d="M-140.24,774.49a10.51,10.51,0,0,1-10.49-10.2,10.51,10.51,0,0,1,10.19-10.8,10.39,10.39,0,0,1,7.51,2.86,10.44,10.44,0,0,1,3.29,7.34,10.42,10.42,0,0,1-2.86,7.51,10.42,10.42,0,0,1-7.33,3.29Zm0-16.15h-.17a5.66,5.66,0,0,0-5.48,5.81,5.6,5.6,0,0,0,1.77,4,5.53,5.53,0,0,0,4,1.53,5.59,5.59,0,0,0,3.94-1.76,5.63,5.63,0,0,0,1.54-4,5.6,5.6,0,0,0-1.77-4A5.57,5.57,0,0,0-140.23,758.34Z" transform="translate(426.98 142.42)"/><path class="cls-4" d="M-83.72,772.86a10.51,10.51,0,0,1-10.49-10.2h0a10.42,10.42,0,0,1,2.86-7.51A10.42,10.42,0,0,1-84,751.86a10.46,10.46,0,0,1,7.52,2.86,10.41,10.41,0,0,1,3.28,7.33,10.52,10.52,0,0,1-10.19,10.81Zm-5.64-10.34A5.66,5.66,0,0,0-83.55,768a5.56,5.56,0,0,0,3.94-1.77,5.55,5.55,0,0,0,1.54-4,5.58,5.58,0,0,0-1.77-3.94,5.53,5.53,0,0,0-4-1.54,5.56,5.56,0,0,0-3.94,1.77,5.61,5.61,0,0,0-1.54,4Z" transform="translate(426.98 142.42)"/><path class="cls-4" d="M-112,860.76a83.45,83.45,0,0,1-83.36-83.35A83.45,83.45,0,0,1-112,694.05a83.45,83.45,0,0,1,83.35,83.36A83.44,83.44,0,0,1-112,860.76Zm0-161.85a78.58,78.58,0,0,0-78.5,78.5A78.58,78.58,0,0,0-112,855.9a78.58,78.58,0,0,0,78.49-78.49A78.58,78.58,0,0,0-112,698.91Z" transform="translate(426.98 142.42)"/><path class="cls-4" d="M-122.06,757a2.41,2.41,0,0,1-1.79-.79c-4.52-4.93-10.81-8.95-18.69-11.94-7.16-2.71-14.88-4.32-22.34-5.88a2.42,2.42,0,0,1-1.88-2.88,2.43,2.43,0,0,1,2.87-1.88c7.65,1.6,15.56,3.26,23.07,6.11,8.6,3.25,15.51,7.69,20.55,13.19a2.43,2.43,0,0,1-.16,3.43A2.38,2.38,0,0,1-122.06,757Z" transform="translate(426.98 142.42)"/><path class="cls-4" d="M-101.89,757a2.38,2.38,0,0,1-1.63-.64,2.43,2.43,0,0,1-.16-3.43c5-5.5,12-9.94,20.55-13.19,7.52-2.85,15.42-4.51,23.07-6.11a2.43,2.43,0,0,1,2.87,1.88,2.42,2.42,0,0,1-1.88,2.88c-7.46,1.56-15.18,3.17-22.34,5.88-7.88,3-14.17,7-18.69,11.94A2.41,2.41,0,0,1-101.89,757Z" transform="translate(426.98 142.42)"/><path class="cls-4" d="M-93.29,833.63a2.42,2.42,0,0,1-1.72-.71l-37.36-37.36a2.43,2.43,0,0,1,0-3.44,2.44,2.44,0,0,1,3.43,0l37.36,37.37a2.42,2.42,0,0,1,0,3.43A2.42,2.42,0,0,1-93.29,833.63Z" transform="translate(426.98 142.42)"/><path class="cls-4" d="M-129.59,832.56a2.41,2.41,0,0,1-1.72-.71,2.44,2.44,0,0,1,0-3.43l35.23-35.23a2.43,2.43,0,0,1,3.44,0,2.44,2.44,0,0,1,0,3.43l-35.23,35.23A2.41,2.41,0,0,1-129.59,832.56Z" transform="translate(426.98 142.42)"/><path class="cls-4" d="M289.1,554a83.35,83.35,0,1,1,83.35-83.35A83.44,83.44,0,0,1,289.1,554Zm0-161.85a78.5,78.5,0,1,0,78.5,78.5A78.58,78.58,0,0,0,289.1,392.17Z" transform="translate(426.98 142.42)"/><path class="cls-4" d="M252.17,462.33c-5.59,0-10-6.65-10-15.14s4.38-15.15,10-15.15,10,6.65,10,15.15S257.76,462.33,252.17,462.33Zm0-25.44c-2.42,0-5.12,4.4-5.12,10.3s2.7,10.29,5.12,10.29,5.12-4.4,5.12-10.29S254.59,436.89,252.17,436.89Z" transform="translate(426.98 142.42)"/><path class="cls-4" d="M333.57,466.16a2.37,2.37,0,0,1-.83-.14l-23-8.38c-2.32-.85-3.57-2.18-3.74-4a5,5,0,0,1,2-4.11l14.7-13.11a2.43,2.43,0,1,1,3.23,3.62l-14.57,13h0l22.95,8.38a2.42,2.42,0,0,1-.83,4.7Z" transform="translate(426.98 142.42)"/><path class="cls-4" d="M289.1,498.83a65.78,65.78,0,0,1-7.55-.44,2.43,2.43,0,1,1,.58-4.82,62.9,62.9,0,0,0,52.5-19.17,2.43,2.43,0,1,1,3.55,3.31A68,68,0,0,1,289.1,498.83Z" transform="translate(426.98 142.42)"/><path class="cls-4" d="M289.1,1066.17c-19,0-35.85-12.08-40-28.74a8.4,8.4,0,0,1,8.13-10.41h63.68a8.39,8.39,0,0,1,8.12,10.41C325,1054.09,308.14,1066.17,289.1,1066.17Zm-31.84-34.3a3.47,3.47,0,0,0-2.76,1.35,3.51,3.51,0,0,0-.65,3c3.58,14.52,18.41,25,35.25,25s31.66-10.53,35.25-25a3.55,3.55,0,0,0-.65-3,3.48,3.48,0,0,0-2.76-1.35Z" transform="translate(426.98 142.42)"/><path class="cls-4" d="M289.1,1097.22a83.36,83.36,0,1,1,83.35-83.36A83.45,83.45,0,0,1,289.1,1097.22Zm0-161.85a78.5,78.5,0,1,0,78.5,78.49A78.58,78.58,0,0,0,289.1,935.37Z" transform="translate(426.98 142.42)"/><path class="cls-4" d="M234.34,1020.79a2.43,2.43,0,0,1-1.38-4.43l22-15a11.06,11.06,0,0,0,3.14-2.75,2.07,2.07,0,0,0,.24-2.1,5.08,5.08,0,0,0-1.34-.91l-26.27-14.33A2.43,2.43,0,0,1,233,977l26.27,14.33a8.81,8.81,0,0,1,2.85,2.2,6.7,6.7,0,0,1,0,7.66,15.14,15.14,0,0,1-4.51,4.17l-22,15A2.44,2.44,0,0,1,234.34,1020.79Z" transform="translate(426.98 142.42)"/><path class="cls-4" d="M343.86,1020.79a2.48,2.48,0,0,1-1.37-.42l-22-15a15.14,15.14,0,0,1-4.51-4.17,6.7,6.7,0,0,1,0-7.66,8.7,8.7,0,0,1,2.85-2.2L345.16,977a2.43,2.43,0,1,1,2.32,4.26L321.21,995.6a5,5,0,0,0-1.34.9,2.09,2.09,0,0,0,.24,2.1,11,11,0,0,0,3.15,2.75l22,15a2.43,2.43,0,0,1-1.37,4.43Z" transform="translate(426.98 142.42)"/><path class="cls-4" d="M107.83,735.29a83.36,83.36,0,1,1,83.35-83.35A83.44,83.44,0,0,1,107.83,735.29Zm0-161.85a78.5,78.5,0,1,0,78.5,78.5A78.59,78.59,0,0,0,107.83,573.44Z" transform="translate(426.98 142.42)"/><path class="cls-4" d="M67.91,659.12a2.43,2.43,0,0,1-1.37-4.43l22-15a10.93,10.93,0,0,0,3.14-2.76,2.05,2.05,0,0,0,.24-2.09,4.94,4.94,0,0,0-1.33-.91L64.28,619.58a2.43,2.43,0,0,1,2.33-4.26l26.27,14.34a8.53,8.53,0,0,1,2.85,2.2,6.7,6.7,0,0,1,0,7.66,15,15,0,0,1-4.51,4.16l-22,15A2.44,2.44,0,0,1,67.91,659.12Z" transform="translate(426.98 142.42)"/><path class="cls-4" d="M147.76,659.12a2.45,2.45,0,0,1-1.37-.42l-22-15a15,15,0,0,1-4.51-4.16,6.72,6.72,0,0,1,0-7.66,8.63,8.63,0,0,1,2.85-2.2l26.27-14.34a2.43,2.43,0,1,1,2.33,4.26l-26.27,14.34a4.85,4.85,0,0,0-1.34.91,2.07,2.07,0,0,0,.24,2.09,10.93,10.93,0,0,0,3.14,2.76l22,15a2.43,2.43,0,0,1-1.37,4.43Z" transform="translate(426.98 142.42)"/><path class="cls-4" d="M109.18,685.16c-2.64,0-5.14-.1-7.47-.27-29-2-41.43-10-49-16.64a2.43,2.43,0,1,1,3.21-3.64c13.22,11.67,30.73,14.36,46.12,15.44,13.25.94,32.34-.26,48.05-11.28a26.28,26.28,0,0,0,9-10.31,2.43,2.43,0,1,1,4.42,2,31.26,31.26,0,0,1-10.67,12.27C138.81,682.61,122.38,685.16,109.18,685.16Z" transform="translate(426.98 142.42)"/><path class="cls-4" d="M309.75,698.35H268.44a9.48,9.48,0,0,1-8-4.42,9.26,9.26,0,0,1-.62-8.93c5-10.65,16.46-17.54,29.31-17.54s24.35,6.89,29.3,17.54a9.23,9.23,0,0,1-.61,8.93A9.5,9.5,0,0,1,309.75,698.35ZM289.1,672.16c-11,0-20.86,5.82-25.05,14.82a4.53,4.53,0,0,0,.32,4.43,4.81,4.81,0,0,0,4.07,2.24h41.31a4.83,4.83,0,0,0,4.08-2.24,4.55,4.55,0,0,0,.32-4.43C310,678,300.13,672.16,289.1,672.16Z" transform="translate(426.98 142.42)"/><path class="cls-4" d="M289.1,735.29a83.36,83.36,0,1,1,83.35-83.35A83.44,83.44,0,0,1,289.1,735.29Zm0-161.85a78.5,78.5,0,1,0,78.5,78.5A78.58,78.58,0,0,0,289.1,573.44Z" transform="translate(426.98 142.42)"/><path class="cls-4" d="M249.17,674.59a2.43,2.43,0,0,1-1.37-4.43l22-15a11.06,11.06,0,0,0,3.14-2.75,2.09,2.09,0,0,0,.24-2.1,4.85,4.85,0,0,0-1.34-.9l-26.27-14.34a2.43,2.43,0,1,1,2.33-4.26l26.27,14.34a8.73,8.73,0,0,1,2.85,2.19,6.72,6.72,0,0,1,0,7.66,14.77,14.77,0,0,1-4.51,4.17l-22,15A2.4,2.4,0,0,1,249.17,674.59Z" transform="translate(426.98 142.42)"/><path class="cls-4" d="M329,674.59a2.37,2.37,0,0,1-1.36-.42l-22-15a15,15,0,0,1-4.51-4.17,6.7,6.7,0,0,1,0-7.66,8.62,8.62,0,0,1,2.85-2.19l26.27-14.34a2.43,2.43,0,1,1,2.33,4.26L306.38,649.4a4.86,4.86,0,0,0-1.35.91,2.08,2.08,0,0,0,.25,2.09,11.06,11.06,0,0,0,3.14,2.75l22,15a2.42,2.42,0,0,1-1.37,4.43Z" transform="translate(426.98 142.42)"/><path class="cls-4" d="M240.3,629.6a26.65,26.65,0,0,1-5.11-.49,2.42,2.42,0,0,1,.92-4.76c14.22,2.76,30.59-9.54,39.79-22.14a2.43,2.43,0,0,1,3.92,2.87C270.48,617.86,255.17,629.6,240.3,629.6Z" transform="translate(426.98 142.42)"/><path class="cls-4" d="M337.89,629.6c-14.87,0-30.17-11.74-39.51-24.52a2.43,2.43,0,1,1,3.91-2.87c9.21,12.6,25.58,24.9,39.8,22.14a2.42,2.42,0,0,1,.92,4.76A26.67,26.67,0,0,1,337.89,629.6Z" transform="translate(426.98 142.42)"/><path class="cls-4" d="M470.37,735.29a83.36,83.36,0,1,1,83.35-83.35A83.45,83.45,0,0,1,470.37,735.29Zm0-161.85a78.5,78.5,0,1,0,78.49,78.5A78.58,78.58,0,0,0,470.37,573.44Z" transform="translate(426.98 142.42)"/><path class="cls-4" d="M405.92,666.64a13.71,13.71,0,1,1,13.7-13.7A13.72,13.72,0,0,1,405.92,666.64Zm0-22.55a8.85,8.85,0,1,0,8.85,8.85A8.86,8.86,0,0,0,405.92,644.09Z" transform="translate(426.98 142.42)"/><path class="cls-4" d="M534.81,666.64a13.71,13.71,0,1,1,13.7-13.7A13.72,13.72,0,0,1,534.81,666.64Zm0-22.55a8.85,8.85,0,1,0,8.85,8.85A8.86,8.86,0,0,0,534.81,644.09Z" transform="translate(426.98 142.42)"/><path class="cls-4" d="M419.48,632.28a2.43,2.43,0,0,1-1.59-4.26c.18-.15,18.19-15.46,34.71.07a2.43,2.43,0,1,1-3.32,3.54c-5.6-5.26-12-6.87-19-4.78a27.39,27.39,0,0,0-9.16,4.84A2.4,2.4,0,0,1,419.48,632.28Z" transform="translate(426.98 142.42)"/><path class="cls-4" d="M521.25,632.28a2.4,2.4,0,0,1-1.66-.65c-13.31-12.51-27.61-.46-28.21.06A2.43,2.43,0,0,1,488.2,628c.18-.15,18.18-15.46,34.71.07a2.42,2.42,0,0,1-1.66,4.19Z" transform="translate(426.98 142.42)"/><path class="cls-4" d="M460,686.49c-4.95,0-10.16-.7-12.29-3.26a4.88,4.88,0,0,1-.52-5.48,2.42,2.42,0,1,1,4.4,2,1.76,1.76,0,0,0-.12.37c.23.23,1.77,1.44,8.26,1.48a52.93,52.93,0,0,0,9.81-.8,6.69,6.69,0,0,0,3.14-1.46,7.81,7.81,0,0,0,1.09-1.82,12.88,12.88,0,0,1,1.71-2.76c2.53-2.92,5.7-3.55,8.26-4.06,3.4-.67,4.95-1,5.45-5.37.47-4.06-.71-7.66-2.08-11.83l-.27-.84a2.43,2.43,0,1,1,4.61-1.51l.27.83c1.42,4.32,2.89,8.79,2.3,13.9-.92,7.92-5.79,8.88-9.34,9.58-2.2.44-4.09.81-5.53,2.48a8.08,8.08,0,0,0-1,1.75,12.12,12.12,0,0,1-1.89,3,10.81,10.81,0,0,1-5.49,2.85A59.65,59.65,0,0,1,460,686.49Zm-8.54-6.28h0Z" transform="translate(426.98 142.42)"/><path class="cls-4" d="M814,701.55a13.67,13.67,0,0,1-5.35-1.07,10.61,10.61,0,0,1-6.37-8.6c-.06-.47-.1-.94-.12-1.4h0c-.56-11.71,8.63-20,18.64-27.3.62-.44,1.24-.92,1.87-1.4,3.24-2.46,6.92-5.24,11.46-5.9,6.62-.94,11.81,3.87,15.13,7.58a99.42,99.42,0,0,1,9.53,12.44c4.47,6.92,5.53,12.79,3.15,17.44-2.52,4.94-8.14,6.81-12.55,6.9a38.64,38.64,0,0,1-10.66-1.68l-2.18-.55a24.82,24.82,0,0,0-8.71-.7,15.87,15.87,0,0,0-4.1,1.08c-.6.25-1.2.57-1.83.91a20.94,20.94,0,0,1-2.77,1.33A15,15,0,0,1,814,701.55Zm-7-11.3c0,.34,0,.69.09,1a5.76,5.76,0,0,0,3.46,4.73,9.59,9.59,0,0,0,6.9.05,14.93,14.93,0,0,0,2.14-1,25.26,25.26,0,0,1,2.27-1.12,20.53,20.53,0,0,1,5.37-1.41,28.74,28.74,0,0,1,10.45.8c.75.18,1.49.36,2.24.56a36.71,36.71,0,0,0,9.35,1.53c2.88-.06,6.78-1.22,8.34-4.26s.55-7.24-2.91-12.59a94.08,94.08,0,0,0-9.06-11.84c-2.8-3.12-6.56-6.64-10.83-6-3.3.47-6.31,2.75-9.21,5l-2,1.47C814.72,673.57,806.54,680.84,807,690.25Z" transform="translate(426.98 142.42)"/><path class="cls-4" d="M887.39,674.3a7,7,0,0,1-4.22-1.41c-3.33-2.52-4.36-6.9-4.64-8.67h0c-.06-.32-.1-.65-.15-1-.14-.91-.27-1.77-.47-2.58a18.43,18.43,0,0,0-2.13-5c-.57-.94-1.64-2.68-.95-4.49a3.57,3.57,0,0,1,2.42-2.14,10.61,10.61,0,0,1,7.31.45c3.83,1.66,7.1,5.38,9,10.21,2.63,6.71,1,10.42-.86,12.35A7.36,7.36,0,0,1,887.39,674.3Zm-7.29-20.9a23,23,0,0,1,2.51,6.07c.26,1,.42,2.06.57,3,0,.31.09.62.14.93h0A8.91,8.91,0,0,0,886.1,669a2.36,2.36,0,0,0,3.08-.35c1.66-1.74.62-5.28-.15-7.23-1.42-3.64-3.75-6.38-6.4-7.53A6,6,0,0,0,880.1,653.4Z" transform="translate(426.98 142.42)"/><path class="cls-4" d="M778.41,674.29a7.31,7.31,0,0,1-5.3-2.28c-1.84-1.93-3.49-5.64-.86-12.35,1.89-4.83,5.16-8.55,9-10.21a10.56,10.56,0,0,1,7.31-.45,3.57,3.57,0,0,1,2.42,2.14c.69,1.81-.38,3.55-1,4.49a18.74,18.74,0,0,0-2.13,5c-.2.81-.33,1.67-.47,2.58,0,.33-.09.66-.15,1-.28,1.77-1.3,6.15-4.64,8.67A7,7,0,0,1,778.41,674.29Zm7.13-20.89a5.92,5.92,0,0,0-2.37.51c-2.65,1.14-5,3.88-6.4,7.52-.77,2-1.8,5.49-.15,7.23a2.37,2.37,0,0,0,3.09.35,8.91,8.91,0,0,0,2.77-5.56h0c0-.31.1-.62.14-.93.15-1,.31-2,.57-3a23.25,23.25,0,0,1,2.51-6.08Z" transform="translate(426.98 142.42)"/><path class="cls-4" d="M832.9,735.29a83.36,83.36,0,1,1,83.35-83.35A83.44,83.44,0,0,1,832.9,735.29Zm0-161.85a78.5,78.5,0,1,0,78.5,78.5A78.59,78.59,0,0,0,832.9,573.44Z" transform="translate(426.98 142.42)"/><path class="cls-4" d="M786,632.41a10.31,10.31,0,0,1-2.45-.29,2.43,2.43,0,1,1,1.18-4.71c1.94.48,4.22-.28,6.39-1.18a69.92,69.92,0,0,0,25.44-18.16,2.43,2.43,0,1,1,3.64,3.22A74.78,74.78,0,0,1,793,630.71,18.47,18.47,0,0,1,786,632.41Z" transform="translate(426.98 142.42)"/><path class="cls-4" d="M879.81,632.41a18.47,18.47,0,0,1-7-1.7,74.78,74.78,0,0,1-27.22-19.42,2.43,2.43,0,1,1,3.64-3.22,69.92,69.92,0,0,0,25.44,18.16c2.17.9,4.46,1.66,6.39,1.18a2.43,2.43,0,1,1,1.18,4.71A10.31,10.31,0,0,1,879.81,632.41Z" transform="translate(426.98 142.42)"/><path class="cls-4" d="M818.31,648.55a2.42,2.42,0,0,1-1.13-.28,24.42,24.42,0,0,0-19.95-1.18,2.43,2.43,0,1,1-1.75-4.53,29.37,29.37,0,0,1,24,1.42,2.43,2.43,0,0,1-1.14,4.57Z" transform="translate(426.98 142.42)"/><path class="cls-4" d="M847.49,648.55a2.43,2.43,0,0,1-1.14-4.57,29.33,29.33,0,0,1,24-1.42,2.43,2.43,0,0,1-1.75,4.53,24.39,24.39,0,0,0-20,1.18A2.42,2.42,0,0,1,847.49,648.55Z" transform="translate(426.98 142.42)"/><path class="cls-4" d="M1014.17,735.29a83.36,83.36,0,1,1,83.35-83.35A83.44,83.44,0,0,1,1014.17,735.29Zm0-161.85a78.5,78.5,0,1,0,78.5,78.5A78.58,78.58,0,0,0,1014.17,573.44Z" transform="translate(426.98 142.42)"/><path class="cls-4" d="M1095.84,641.2l-3.18-3.67-34.58,30v-4.08a19.17,19.17,0,0,0-19.15-19.14h-49.8A19.17,19.17,0,0,0,970,663.45v3.85l-34.32-29.77-3.18,3.67L970,673.72V680a19.17,19.17,0,0,0,19.14,19.14h49.8A19.17,19.17,0,0,0,1058.08,680v-6ZM1053.22,680a14.31,14.31,0,0,1-14.29,14.29h-49.8A14.31,14.31,0,0,1,974.84,680V663.45a14.31,14.31,0,0,1,14.29-14.29h49.8a14.31,14.31,0,0,1,14.29,14.29Z" transform="translate(426.98 142.42)"/><path class="cls-4" d="M977.58,625a47.74,47.74,0,0,1-19.73-3.84,2.43,2.43,0,1,1,2-4.43c11.27,5.06,24.41,3.57,35.78,1.43a2.43,2.43,0,1,1,.9,4.77A103.53,103.53,0,0,1,977.58,625Z" transform="translate(426.98 142.42)"/><path class="cls-4" d="M1050.75,625a103.42,103.42,0,0,1-18.93-2.07,2.43,2.43,0,1,1,.89-4.77c11.37,2.13,24.52,3.64,35.79-1.43a2.43,2.43,0,0,1,2,4.43A47.76,47.76,0,0,1,1050.75,625Z" transform="translate(426.98 142.42)"/><path class="cls-4" d="M289.1,916.92a83.35,83.35,0,1,1,83.35-83.35A83.44,83.44,0,0,1,289.1,916.92Zm0-161.85a78.5,78.5,0,1,0,78.5,78.5A78.58,78.58,0,0,0,289.1,755.07Z" transform="translate(426.98 142.42)"/><path class="cls-4" d="M289.14,883.28A20.8,20.8,0,0,1,274.48,877a21.88,21.88,0,0,1-4.35-24.14,20.13,20.13,0,0,1,18.71-12.67h.31a17.55,17.55,0,0,1,11.38,4.24c5.44,4.68,7.28,12.46,7.2,18.18-.11,6.94-2.57,12.79-6.93,16.46A17.93,17.93,0,0,1,289.14,883.28ZM288.83,845a15.17,15.17,0,0,0-14.23,9.7,17.07,17.07,0,0,0,3.31,18.83c5.7,5.71,14.2,6.48,19.76,1.79,4.41-3.72,5.16-9.63,5.2-12.83.07-4.41-1.33-10.83-5.51-14.42a12.77,12.77,0,0,0-8.28-3.07h-.25Z" transform="translate(426.98 142.42)"/><path class="cls-4" d="M253.3,833.88a85.78,85.78,0,0,1-8.62-.43,2.43,2.43,0,0,1,.49-4.83A81.57,81.57,0,0,0,269,827.5a2.43,2.43,0,0,1,.94,4.76A86.39,86.39,0,0,1,253.3,833.88Z" transform="translate(426.98 142.42)"/><path class="cls-4" d="M324.9,833.88a86.39,86.39,0,0,1-16.66-1.62,2.43,2.43,0,1,1,.94-4.76A81.54,81.54,0,0,0,333,828.62a2.43,2.43,0,1,1,.49,4.83A85.78,85.78,0,0,1,324.9,833.88Z" transform="translate(426.98 142.42)"/><path class="cls-4" d="M336.12,824.53a3.75,3.75,0,0,1-1.09-.17,3.8,3.8,0,0,1-2.59-3.14c-.44-3.41-.94-6.85-1.46-10.26l-3.33,4.85a2.43,2.43,0,0,1-4-2.75l5-7.25a3.66,3.66,0,0,1,3.83-1.52,3.74,3.74,0,0,1,2.87,3.09c.58,3.55,1.12,7.16,1.61,10.76,2.22-2.56,4.34-5.24,6.33-8A2.43,2.43,0,0,1,347.2,813a116.38,116.38,0,0,1-8.4,10.35A3.62,3.62,0,0,1,336.12,824.53Z" transform="translate(426.98 142.42)"/><path class="cls-4" d="M345.91,808.9a3.44,3.44,0,0,1-1.09-.17,3.78,3.78,0,0,1-2.59-3.14c-.44-3.4-.94-6.84-1.46-10.26l-3.33,4.85a2.43,2.43,0,1,1-4-2.75l5-7.24a3.67,3.67,0,0,1,3.83-1.53,3.75,3.75,0,0,1,2.87,3.09c.58,3.56,1.12,7.17,1.6,10.76,2.23-2.56,4.35-5.24,6.34-8a2.42,2.42,0,1,1,3.93,2.84,116.28,116.28,0,0,1-8.39,10.35A3.62,3.62,0,0,1,345.91,808.9Z" transform="translate(426.98 142.42)"/><path class="cls-4" d="M470.37,916.92a83.35,83.35,0,1,1,83.35-83.35A83.45,83.45,0,0,1,470.37,916.92Zm0-161.85a78.5,78.5,0,1,0,78.49,78.5A78.58,78.58,0,0,0,470.37,755.07Z" transform="translate(426.98 142.42)"/><path class="cls-4" d="M431.17,842.77c-5.4,0-9.75-5.87-9.95-13.49a17.27,17.27,0,0,1,2.3-9.39c1.75-2.86,4.35-4.54,7.12-4.61h.2c5.4,0,9.75,5.87,10,13.49a17.27,17.27,0,0,1-2.3,9.39c-1.75,2.86-4.35,4.54-7.12,4.61Zm-.34-22.64h-.06c-1.51,0-2.6,1.46-3.11,2.3a12.49,12.49,0,0,0-1.59,6.73c.14,5.24,2.82,8.78,5.17,8.76,1.51,0,2.6-1.46,3.11-2.3a12.47,12.47,0,0,0,1.59-6.72C435.8,823.7,433.15,820.13,430.83,820.13Z" transform="translate(426.98 142.42)"/><path class="cls-4" d="M504.79,840.83c-5.4,0-9.76-5.87-10-13.49a17.35,17.35,0,0,1,2.3-9.39c1.76-2.86,4.35-4.54,7.13-4.61h.19c5.4,0,9.76,5.87,10,13.49a17.35,17.35,0,0,1-2.3,9.39c-1.76,2.86-4.35,4.54-7.13,4.61Zm-.35-22.64h-.06c-1.5,0-2.59,1.46-3.11,2.3a12.67,12.67,0,0,0-1.59,6.73c.14,5.24,2.88,8.82,5.17,8.76,1.51,0,2.6-1.46,3.12-2.3a12.56,12.56,0,0,0,1.58-6.72C509.42,821.76,506.76,818.19,504.44,818.19Z" transform="translate(426.98 142.42)"/><path class="cls-4" d="M444.36,879.79a11.41,11.41,0,0,1-9.57-5,9.49,9.49,0,0,1-.65-9.42c5.7-12,19.41-19.93,34.94-20.34s29.65,6.84,36,18.47a9.45,9.45,0,0,1-.15,9.44,11.43,11.43,0,0,1-9.61,5.54h0l-50.6,1.33Zm26-29.95h-1.13c-13.73.37-25.77,7.26-30.69,17.58a4.69,4.69,0,0,0,.34,4.68,6.49,6.49,0,0,0,5.69,2.82l50.6-1.33h0a6.54,6.54,0,0,0,5.54-3.12,4.68,4.68,0,0,0,.09-4.69C495.47,856,483.61,849.84,470.34,849.84Z" transform="translate(426.98 142.42)"/><path class="cls-4" d="M417.79,812.47a25.4,25.4,0,0,1-6.91-.93,2.43,2.43,0,1,1,1.32-4.67c6.36,1.79,12.76,0,17-1.76,5.75-2.43,11-6.28,15.71-9.69a2.43,2.43,0,1,1,2.86,3.92c-4.88,3.56-10.41,7.6-16.68,10.24A34.73,34.73,0,0,1,417.79,812.47Z" transform="translate(426.98 142.42)"/><path class="cls-4" d="M522.94,812.47a34.77,34.77,0,0,1-13.3-2.89c-6.27-2.64-11.8-6.68-16.68-10.24a2.43,2.43,0,0,1,2.86-3.92c4.67,3.41,10,7.26,15.71,9.69,4.24,1.79,10.64,3.55,17,1.76a2.43,2.43,0,1,1,1.32,4.67A25.4,25.4,0,0,1,522.94,812.47Z" transform="translate(426.98 142.42)"/><path class="cls-4" d="M-141.07,395.18a13.18,13.18,0,0,1-5.15-1,10.28,10.28,0,0,1-6.16-8.31c-.05-.45-.09-.89-.11-1.34h0c-.54-11.24,8.26-19.22,17.85-26.16.59-.43,1.18-.89,1.79-1.34,3.1-2.36,6.62-5,11-5.66,6.37-.9,11.36,3.71,14.56,7.27a95.21,95.21,0,0,1,9.1,11.9c4.3,6.64,5.31,12.28,3,16.77-2.43,4.76-7.84,6.55-12.08,6.65a37,37,0,0,1-10.2-1.61c-.7-.18-1.39-.36-2.09-.52a23.29,23.29,0,0,0-8.28-.67,14.86,14.86,0,0,0-3.89,1,18.81,18.81,0,0,0-1.74.87,18.76,18.76,0,0,1-2.66,1.27A14.3,14.3,0,0,1-141.07,395.18Zm-6.57-10.91c0,.33,0,.66.08,1a5.36,5.36,0,0,0,3.24,4.43,9,9,0,0,0,6.51.05,15.59,15.59,0,0,0,2-1,23.3,23.3,0,0,1,2.18-1.08,19.43,19.43,0,0,1,5.16-1.36,27.67,27.67,0,0,1,10,.77l2.15.53a33.55,33.55,0,0,0,8.89,1.46c2.72-.05,6.41-1.14,7.87-4s.51-6.84-2.77-11.93a91.65,91.65,0,0,0-8.65-11.29c-2.65-3-6.22-6.28-10.25-5.7-3.11.45-6,2.62-8.74,4.71-.63.48-1.26,1-1.88,1.41C-140.28,368.42-148.07,375.34-147.64,384.27Z" transform="translate(426.98 142.42)"/><path class="cls-4" d="M-123.26,442.77a83.44,83.44,0,0,1-83.35-83.35,83.45,83.45,0,0,1,83.35-83.36A83.45,83.45,0,0,1-39.9,359.42,83.45,83.45,0,0,1-123.26,442.77Zm0-161.85a78.59,78.59,0,0,0-78.5,78.5,78.6,78.6,0,0,0,78.5,78.5,78.59,78.59,0,0,0,78.5-78.5A78.58,78.58,0,0,0-123.26,280.92Z" transform="translate(426.98 142.42)"/><path class="cls-4" d="M-149.13,330.42h-28.66a2.42,2.42,0,0,0-2.42,2.42,2.42,2.42,0,0,0,2.42,2.43h12.14v72.38a2.43,2.43,0,0,0,2.43,2.43,2.42,2.42,0,0,0,2.42-2.43V335.27h11.67a2.43,2.43,0,0,0,2.43-2.43A2.42,2.42,0,0,0-149.13,330.42Z" transform="translate(426.98 142.42)"/><path class="cls-4" d="M-68.73,330.42H-97.38a2.42,2.42,0,0,0-2.43,2.42,2.43,2.43,0,0,0,2.43,2.43h12.13v72.38a2.43,2.43,0,0,0,2.43,2.43,2.43,2.43,0,0,0,2.43-2.43V335.27h11.66a2.43,2.43,0,0,0,2.43-2.43A2.42,2.42,0,0,0-68.73,330.42Z" transform="translate(426.98 142.42)"/><path class="cls-4" d="M497.8,1047.85a4.66,4.66,0,0,1-1.55-.28h0l-14.54-5.32a33.32,33.32,0,0,0-23,0l-14.25,5.27a4.5,4.5,0,0,1-6-4.89c2.05-14.35,15.75-25.17,31.88-25.17s29.83,10.83,31.87,25.19a4.53,4.53,0,0,1-4.44,5.17Zm-27.52-12.48a37.94,37.94,0,0,1,13.09,2.32l14,5.11c-2-11.7-13.47-20.45-27-20.45s-25,8.74-27,20.44l13.69-5.06A38.19,38.19,0,0,1,470.28,1035.37Z" transform="translate(426.98 142.42)"/><path class="cls-4" d="M470.37,1097.22a83.36,83.36,0,1,1,83.35-83.35A83.45,83.45,0,0,1,470.37,1097.22Zm0-161.85a78.5,78.5,0,1,0,78.49,78.5A78.58,78.58,0,0,0,470.37,935.37Z" transform="translate(426.98 142.42)"/><path class="cls-4" d="M454.43,983.8H422.61a2.43,2.43,0,1,0,0,4.86h26.71c0,.05,0,.1,0,.16v9.48a2.43,2.43,0,0,0,4.86,0v-9.48a.78.78,0,0,0,0-.16h.29a2.43,2.43,0,0,0,0-4.86Z" transform="translate(426.98 142.42)"/><path class="cls-4" d="M518.12,983.8H486.31a2.43,2.43,0,0,0,0,4.86H513a.78.78,0,0,0,0,.16v9.48a2.43,2.43,0,0,0,4.86,0v-9.48c0-.06,0-.11,0-.16h.28a2.43,2.43,0,0,0,0-4.86Z" transform="translate(426.98 142.42)"/></g></svg>