<svg xmlns="http://www.w3.org/2000/svg" viewBox="0 0 166.71 166.71"><defs><style>.cls-1{fill:#aaa19d;}</style></defs><g id="Object"><path class="cls-1" d="M289.1,554a83.35,83.35,0,1,1,83.35-83.35A83.44,83.44,0,0,1,289.1,554Zm0-161.85a78.5,78.5,0,1,0,78.5,78.5A78.58,78.58,0,0,0,289.1,392.17Z" transform="translate(-205.75 -387.32)"/><path class="cls-1" d="M252.17,462.33c-5.59,0-10-6.65-10-15.14s4.38-15.15,10-15.15,10,6.65,10,15.15S257.76,462.33,252.17,462.33Zm0-25.44c-2.42,0-5.12,4.4-5.12,10.3s2.7,10.29,5.12,10.29,5.12-4.4,5.12-10.29S254.59,436.89,252.17,436.89Z" transform="translate(-205.75 -387.32)"/><path class="cls-1" d="M333.57,466.16a2.37,2.37,0,0,1-.83-.14l-23-8.38c-2.32-.85-3.57-2.18-3.74-4a5,5,0,0,1,2-4.11l14.7-13.11a2.43,2.43,0,1,1,3.23,3.62l-14.57,13h0l22.95,8.38a2.42,2.42,0,0,1-.83,4.7Z" transform="translate(-205.75 -387.32)"/><path class="cls-1" d="M289.1,498.83a65.78,65.78,0,0,1-7.55-.44,2.43,2.43,0,1,1,.58-4.82,62.9,62.9,0,0,0,52.5-19.17,2.43,2.43,0,1,1,3.55,3.31A68,68,0,0,1,289.1,498.83Z" transform="translate(-205.75 -387.32)"/></g></svg>