<svg xmlns="http://www.w3.org/2000/svg" viewBox="0 0 166.71 166.71"><defs><style>.cls-1{fill:#aaa19d;}</style></defs><g id="Object"><path class="cls-1" d="M139.06,327.92l-.32,0-24.42-3.19a52.57,52.57,0,0,0-13.67,0l-24,3.19a8.84,8.84,0,0,1-7.06-3.48A8.69,8.69,0,0,1,68,316.87c4.44-16.55,20.81-28.1,39.8-28.1s35.36,11.55,39.8,28.1a8.66,8.66,0,0,1-1.52,7.57A8.84,8.84,0,0,1,139.06,327.92Zm-31.5-8.5a57.08,57.08,0,0,1,7.39.48l24.25,3.17a4,4,0,0,0,3.06-1.58,3.84,3.84,0,0,0,.68-3.36c-3.87-14.43-18.31-24.51-35.11-24.51S76.59,303.7,72.72,318.13a3.87,3.87,0,0,0,.68,3.36,4.05,4.05,0,0,0,3.06,1.58L100,319.92A57.79,57.79,0,0,1,107.56,319.42Z" transform="translate(-24.48 -206.05)"/><path class="cls-1" d="M107.83,372.75a83.35,83.35,0,1,1,83.35-83.35A83.44,83.44,0,0,1,107.83,372.75Zm0-161.85a78.5,78.5,0,1,0,78.5,78.5A78.6,78.6,0,0,0,107.83,210.9Z" transform="translate(-24.48 -206.05)"/><path class="cls-1" d="M62.62,280.61a28.21,28.21,0,0,1-6.69-.79,2.43,2.43,0,0,1,1.16-4.72A26.17,26.17,0,0,0,78,270.82,33.27,33.27,0,0,0,90.52,252.7,2.42,2.42,0,1,1,95.18,254,38.07,38.07,0,0,1,80.8,274.79,31.92,31.92,0,0,1,62.62,280.61Z" transform="translate(-24.48 -206.05)"/><path class="cls-1" d="M153.05,280.61a31.93,31.93,0,0,1-18.19-5.82A38.07,38.07,0,0,1,120.48,254a2.43,2.43,0,0,1,4.67-1.34,33.2,33.2,0,0,0,12.5,18.12,26.19,26.19,0,0,0,20.93,4.28,2.43,2.43,0,0,1,1.15,4.72A28.19,28.19,0,0,1,153.05,280.61Z" transform="translate(-24.48 -206.05)"/></g></svg>