<svg xmlns="http://www.w3.org/2000/svg" viewBox="0 0 166.71 166.71"><defs><style>.cls-1{fill:#aaa19d;}</style></defs><g id="Object"><path class="cls-1" d="M862.63,1053.64H803.17a2.43,2.43,0,1,1,0-4.85h59.46a2.43,2.43,0,1,1,0,4.85Z" transform="translate(-749.55 -930.51)"/><path class="cls-1" d="M795.85,1019.7a25.21,25.21,0,1,1,25.2-25.21A25.24,25.24,0,0,1,795.85,1019.7Zm0-45.56a20.35,20.35,0,1,0,20.35,20.35A20.37,20.37,0,0,0,795.85,974.14Z" transform="translate(-749.55 -930.51)"/><path class="cls-1" d="M795.85,1007.11a12.62,12.62,0,1,1,12.62-12.62A12.63,12.63,0,0,1,795.85,1007.11Zm0-20.38a7.77,7.77,0,1,0,7.76,7.76A7.78,7.78,0,0,0,795.85,986.73Z" transform="translate(-749.55 -930.51)"/><path class="cls-1" d="M870,1019.7a25.21,25.21,0,1,1,25.21-25.21A25.23,25.23,0,0,1,870,1019.7Zm0-45.56a20.35,20.35,0,1,0,20.35,20.35A20.37,20.37,0,0,0,870,974.14Z" transform="translate(-749.55 -930.51)"/><path class="cls-1" d="M870,1007.11a12.62,12.62,0,1,1,12.62-12.62A12.63,12.63,0,0,1,870,1007.11Zm0-20.38a7.77,7.77,0,1,0,7.77,7.76A7.77,7.77,0,0,0,870,986.73Z" transform="translate(-749.55 -930.51)"/><path class="cls-1" d="M832.9,1097.22a83.36,83.36,0,1,1,83.35-83.36A83.45,83.45,0,0,1,832.9,1097.22Zm0-161.85a78.5,78.5,0,1,0,78.5,78.49A78.59,78.59,0,0,0,832.9,935.37Z" transform="translate(-749.55 -930.51)"/></g></svg>