<svg xmlns="http://www.w3.org/2000/svg" viewBox="0 0 166.71 166.71"><defs><style>.cls-1{fill:#aaa19d;}</style></defs><g id="Object"><path class="cls-1" d="M442.1,467.75a10.16,10.16,0,1,1,.31,0Zm0-16.15h-.17a5.65,5.65,0,0,0-3.71,9.75,5.54,5.54,0,0,0,4,1.54,5.65,5.65,0,0,0-.16-11.3Z" transform="translate(-387.01 -387.32)"/><path class="cls-1" d="M498.62,466.12a10.51,10.51,0,0,1-10.49-10.2h0a10.5,10.5,0,0,1,10.19-10.8,10.54,10.54,0,0,1,7.52,2.86,10.51,10.51,0,0,1-6.91,18.14ZM493,455.78a5.64,5.64,0,0,0,9.75,3.72,5.65,5.65,0,1,0-9.75-3.72Z" transform="translate(-387.01 -387.32)"/><path class="cls-1" d="M470.37,554a83.35,83.35,0,1,1,83.35-83.35A83.45,83.45,0,0,1,470.37,554Zm0-161.85a78.5,78.5,0,1,0,78.49,78.5A78.58,78.58,0,0,0,470.37,392.17Z" transform="translate(-387.01 -387.32)"/><path class="cls-1" d="M460.28,450.23a2.38,2.38,0,0,1-1.79-.79c-4.52-4.93-10.81-8.95-18.69-11.93-7.16-2.71-14.88-4.33-22.34-5.89a2.43,2.43,0,0,1,1-4.75c7.65,1.6,15.56,3.25,23.07,6.1,8.6,3.26,15.51,7.7,20.55,13.2a2.42,2.42,0,0,1-1.79,4.06Z" transform="translate(-387.01 -387.32)"/><path class="cls-1" d="M480.45,450.23a2.42,2.42,0,0,1-1.79-4.06c5-5.5,11.95-9.94,20.55-13.2,7.52-2.85,15.42-4.5,23.07-6.1a2.43,2.43,0,0,1,1,4.75c-7.46,1.56-15.18,3.17-22.34,5.89-7.88,3-14.17,7-18.68,11.93A2.41,2.41,0,0,1,480.45,450.23Z" transform="translate(-387.01 -387.32)"/><path class="cls-1" d="M489.05,526.89a2.42,2.42,0,0,1-1.72-.71L450,488.82a2.43,2.43,0,0,1,3.43-3.43l37.36,37.36a2.43,2.43,0,0,1-1.71,4.14Z" transform="translate(-387.01 -387.32)"/><path class="cls-1" d="M452.75,525.83a2.43,2.43,0,0,1-1.72-4.15l35.24-35.23a2.43,2.43,0,1,1,3.43,3.43l-35.23,35.24A2.46,2.46,0,0,1,452.75,525.83Z" transform="translate(-387.01 -387.32)"/></g></svg>