<svg width="80" height="80" viewBox="0 0 80 80" fill="none" xmlns="http://www.w3.org/2000/svg">
<path d="M79.5002 40C79.5002 61.821 62.0257 79.5 40.4825 79.5C18.9393 79.5 1.46484 61.821 1.46484 40C1.46484 18.179 18.9393 0.5 40.4825 0.5C62.0257 0.5 79.5002 18.179 79.5002 40Z" fill="#FBFBFA" stroke="#675B4F"/>
<path d="M79.5002 40C79.5002 61.821 62.0257 79.5 40.4825 79.5C18.9393 79.5 1.46484 61.821 1.46484 40C1.46484 18.179 18.9393 0.5 40.4825 0.5C62.0257 0.5 79.5002 18.179 79.5002 40Z" fill="#FBFBFA" stroke="#675B4F"/>
<path d="M54.8356 33.6253C53.7596 41.5106 47.5369 47.5 40.0877 47.5C32.6385 47.5 26.4158 41.5106 25.3397 33.6253C25.2003 32.6036 26.0497 31.7 27.1758 31.7L52.9996 31.7C54.1257 31.7 54.9751 32.6036 54.8356 33.6253Z" fill="#FBFBFA" stroke="#675B4F"/>
<path d="M33.1341 52.3C33.3311 51.402 34.0567 50.5349 35.2603 49.8387C36.6732 49.0215 38.6583 48.5 40.878 48.5C43.0978 48.5 45.0828 49.0215 46.4958 49.8387C47.6994 50.5349 48.425 51.402 48.622 52.3L33.1341 52.3Z" fill="#FBFBFA" stroke="#675B4F"/>
<path d="M25.4648 34.4004H32.578" stroke="#675B4F"/>
<path d="M26.2559 36.8003L30.998 36.8003" stroke="#675B4F"/>
<path d="M27.0459 39.1997L30.2073 39.1997" stroke="#675B4F"/>
<path d="M54.8356 33.6253C53.7596 41.5106 47.5369 47.5 40.0877 47.5C32.6385 47.5 26.4158 41.5106 25.3397 33.6253C25.2003 32.6036 26.0497 31.7 27.1758 31.7L52.9996 31.7C54.1257 31.7 54.9751 32.6036 54.8356 33.6253Z" fill="#FBFBFA" stroke="#675B4F"/>
<path d="M33.1341 52.3C33.3311 51.402 34.0567 50.5349 35.2603 49.8387C36.6732 49.0215 38.6583 48.5 40.878 48.5C43.0978 48.5 45.0828 49.0215 46.4958 49.8387C47.6994 50.5349 48.425 51.402 48.622 52.3L33.1341 52.3Z" fill="#FBFBFA" stroke="#675B4F"/>
<path d="M25.4668 34.4004H32.58" stroke="#675B4F"/>
<path d="M26.2559 36.8003L30.998 36.8003" stroke="#675B4F"/>
<path d="M27.0459 39.1997L30.2073 39.1997" stroke="#675B4F"/>
</svg>
