<svg width="34" height="35" viewBox="0 0 34 35" fill="none" xmlns="http://www.w3.org/2000/svg">
<path fill-rule="evenodd" clip-rule="evenodd" d="M24.9003 10.5668C22.8009 8.46747 19.3972 8.46747 17.2978 10.5668L16.8767 10.988L16.4556 10.5668C14.3562 8.46747 10.9525 8.46747 8.85309 10.5668C6.75372 12.6662 6.75372 16.07 8.85309 18.1693L9.27422 18.5904L9.27298 18.5917L16.8755 26.1942L16.8767 26.1929L16.8779 26.1942L24.4804 18.5917L24.4792 18.5904L24.9003 18.1693C26.9997 16.07 26.9997 12.6662 24.9003 10.5668Z" fill="#8B7E6A"/>
<path d="M17.2978 10.5668L17.8282 11.0972L17.2978 10.5668ZM24.9003 10.5668L25.4306 10.0365V10.0365L24.9003 10.5668ZM16.8767 10.988L16.3464 11.5183C16.6393 11.8112 17.1141 11.8112 17.407 11.5183L16.8767 10.988ZM16.4556 10.5668L15.9252 11.0972V11.0972L16.4556 10.5668ZM8.85309 10.5668L8.32276 10.0365H8.32276L8.85309 10.5668ZM8.85309 18.1693L9.38342 17.639H9.38342L8.85309 18.1693ZM9.27422 18.5904L9.80447 19.1209C9.94515 18.9802 10.0242 18.7894 10.0242 18.5905C10.0242 18.3916 9.94521 18.2008 9.80455 18.0601L9.27422 18.5904ZM9.27298 18.5917L8.74273 18.0613C8.60204 18.2019 8.523 18.3927 8.52298 18.5916C8.52297 18.7906 8.60199 18.9813 8.74265 19.122L9.27298 18.5917ZM16.8755 26.1942L16.3451 26.7245C16.6379 27.0173 17.1127 27.0174 17.4056 26.7247L16.8755 26.1942ZM16.8767 26.1929L17.407 25.6626C17.1142 25.3698 16.6395 25.3697 16.3466 25.6624L16.8767 26.1929ZM16.8779 26.1942L16.3476 26.7245C16.6405 27.0174 17.1154 27.0174 17.4083 26.7245L16.8779 26.1942ZM24.4804 18.5917L25.0107 19.122C25.3036 18.8291 25.3036 18.3542 25.0107 18.0613L24.4804 18.5917ZM24.4792 18.5904L23.9489 18.0601C23.656 18.353 23.656 18.8279 23.9489 19.1208L24.4792 18.5904ZM24.9003 18.1693L25.4306 18.6997L24.9003 18.1693ZM17.8282 11.0972C19.6346 9.29069 22.5635 9.29069 24.37 11.0972L25.4306 10.0365C23.0384 7.64425 19.1598 7.64424 16.7675 10.0365L17.8282 11.0972ZM17.407 11.5183L17.8282 11.0972L16.7675 10.0365L16.3464 10.4576L17.407 11.5183ZM15.9252 11.0972L16.3464 11.5183L17.407 10.4576L16.9859 10.0365L15.9252 11.0972ZM9.38342 11.0972C11.1899 9.29069 14.1188 9.29069 15.9252 11.0972L16.9859 10.0365C14.5936 7.64424 10.715 7.64425 8.32276 10.0365L9.38342 11.0972ZM9.38342 17.639C7.57695 15.8325 7.57695 12.9036 9.38342 11.0972L8.32276 10.0365C5.9305 12.4288 5.9305 16.3074 8.32276 18.6996L9.38342 17.639ZM9.80455 18.0601L9.38342 17.639L8.32276 18.6996L8.74389 19.1208L9.80455 18.0601ZM9.80323 19.1221L9.80447 19.1209L8.74396 18.06L8.74273 18.0613L9.80323 19.1221ZM17.4058 25.6638L9.80331 18.0613L8.74265 19.122L16.3451 26.7245L17.4058 25.6638ZM16.3466 25.6624L16.3453 25.6636L17.4056 26.7247L17.4068 26.7235L16.3466 25.6624ZM17.4083 25.6638L17.407 25.6626L16.3464 26.7233L16.3476 26.7245L17.4083 25.6638ZM23.9501 18.0613L16.3476 25.6638L17.4083 26.7245L25.0107 19.122L23.9501 18.0613ZM23.9489 19.1208L23.9501 19.122L25.0107 18.0613L25.0095 18.0601L23.9489 19.1208ZM24.37 17.639L23.9489 18.0601L25.0095 19.1208L25.4306 18.6997L24.37 17.639ZM24.37 11.0972C26.1765 12.9036 26.1765 15.8325 24.37 17.639L25.4306 18.6997C27.8229 16.3074 27.8229 12.4288 25.4306 10.0365L24.37 11.0972Z" fill="#8B7E6A"/>
</svg>
