<svg width="34" height="34" viewBox="0 0 34 34" fill="none" xmlns="http://www.w3.org/2000/svg">
<path d="M17.2979 10.5483L17.8282 11.0786L17.2979 10.5483ZM24.9003 10.5483L25.4307 10.018V10.018L24.9003 10.5483ZM16.8767 10.9694L16.3464 11.4997C16.6393 11.7926 17.1142 11.7926 17.4071 11.4997L16.8767 10.9694ZM16.4556 10.5483L15.9253 11.0786V11.0786L16.4556 10.5483ZM8.85312 10.5483L8.32279 10.018H8.32279L8.85312 10.5483ZM8.85312 18.1508L9.38345 17.6204H9.38345L8.85312 18.1508ZM9.27425 18.5719L9.8045 19.1023C9.94519 18.9617 10.0242 18.7709 10.0242 18.5719C10.0243 18.373 9.94524 18.1822 9.80458 18.0416L9.27425 18.5719ZM9.27301 18.5731L8.74276 18.0427C8.60207 18.1834 8.52303 18.3741 8.52301 18.5731C8.523 18.772 8.60202 18.9628 8.74268 19.1035L9.27301 18.5731ZM16.8755 26.1756L16.3452 26.7059C16.638 26.9988 17.1127 26.9988 17.4056 26.7061L16.8755 26.1756ZM16.8767 26.1744L17.4071 25.644C17.1142 25.3512 16.6395 25.3511 16.3466 25.6438L16.8767 26.1744ZM16.878 26.1756L16.3476 26.7059C16.6405 26.9988 17.1154 26.9988 17.4083 26.7059L16.878 26.1756ZM24.4804 18.5731L25.0108 19.1035C25.3037 18.8106 25.3037 18.3357 25.0108 18.0428L24.4804 18.5731ZM24.4792 18.5719L23.9489 18.0416C23.656 18.3345 23.656 18.8093 23.9489 19.1022L24.4792 18.5719ZM24.9003 18.1508L25.4307 18.6811L24.9003 18.1508ZM17.8282 11.0786C19.6347 9.27214 22.5635 9.27214 24.37 11.0786L25.4307 10.018C23.0384 7.62569 19.1598 7.62569 16.7675 10.018L17.8282 11.0786ZM17.4071 11.4997L17.8282 11.0786L16.7675 10.018L16.3464 10.4391L17.4071 11.4997ZM15.9253 11.0786L16.3464 11.4997L17.4071 10.4391L16.9859 10.018L15.9253 11.0786ZM9.38345 11.0786C11.1899 9.27214 14.1188 9.27214 15.9253 11.0786L16.9859 10.018C14.5937 7.62569 10.7151 7.62569 8.32279 10.018L9.38345 11.0786ZM9.38345 17.6204C7.57698 15.814 7.57698 12.8851 9.38345 11.0786L8.32279 10.018C5.93053 12.4102 5.93053 16.2888 8.32279 18.6811L9.38345 17.6204ZM9.80458 18.0416L9.38345 17.6204L8.32279 18.6811L8.74392 19.1022L9.80458 18.0416ZM9.80326 19.1035L9.8045 19.1023L8.74399 18.0415L8.74276 18.0427L9.80326 19.1035ZM17.4058 25.6453L9.80334 18.0428L8.74268 19.1035L16.3452 26.7059L17.4058 25.6453ZM16.3466 25.6438L16.3454 25.6451L17.4056 26.7061L17.4069 26.7049L16.3466 25.6438ZM17.4083 25.6453L17.4071 25.644L16.3464 26.7047L16.3476 26.7059L17.4083 25.6453ZM23.9501 18.0428L16.3476 25.6453L17.4083 26.7059L25.0108 19.1035L23.9501 18.0428ZM23.9489 19.1022L23.9501 19.1035L25.0108 18.0428L25.0095 18.0416L23.9489 19.1022ZM24.37 17.6204L23.9489 18.0416L25.0095 19.1022L25.4307 18.6811L24.37 17.6204ZM24.37 11.0786C26.1765 12.8851 26.1765 15.814 24.37 17.6204L25.4307 18.6811C27.8229 16.2888 27.8229 12.4102 25.4307 10.018L24.37 11.0786Z" fill="#8B7E6A"/>
</svg>
