<svg width="29" height="41" viewBox="0 0 29 41" fill="none" xmlns="http://www.w3.org/2000/svg">
<path d="M18.0091 33.9534H21.206M17.5312 30.9302H23.0415M17.8503 32.3622H19.7641H22.0999" stroke="#675B4F"/>
<path d="M1.20508 17.9739H5.29535M2.50829 14.9507H9.55838M1.68725 16.3828H7.32732" stroke="#675B4F"/>
<rect x="5.58203" y="0.5" width="3.89796" height="2.26531" rx="1.13265" stroke="#675B4F"/>
<path d="M5.43327 2.85693V6.73073C5.49102 9.1881 5.27901 11.7182 3.24606 13.9058C0.704869 16.6402 1.01381 20.5169 1.01381 22.3398C1.01381 23.6324 1.01381 32.3594 1.01381 38.0025C1.01381 39.107 1.90924 39.9998 3.01381 39.9998H7.53256" stroke="#675B4F"/>
<path d="M9.63285 2.85693V6.73073C9.575 9.1881 9.58279 11.7182 11.6192 13.9058C14.1648 16.6402 14.0599 20.5169 14.0599 22.3398C14.0599 23.6324 14.0599 32.3594 14.0599 38.0025C14.0599 39.107 13.1645 39.9998 12.0599 39.9998H7.52994" stroke="#675B4F"/>
<path d="M5.49023 4.48975H9.57187" stroke="#675B4F"/>
<path d="M1 20.4082H14.0612" stroke="#675B4F"/>
<path d="M1 32.2451H14.0612" stroke="#675B4F"/>
<path d="M25.5319 29.3877H19.699C18.4591 29.3877 17.518 30.5043 17.7278 31.7263L18.513 36.2977C18.6779 37.2576 19.5102 37.9591 20.4842 37.9591H24.6813C25.6448 37.9591 26.4713 37.2722 26.6476 36.325L27.4982 31.7536C27.7271 30.5235 26.7831 29.3877 25.5319 29.3877Z" stroke="#675B4F"/>
<rect x="19.3671" y="37.9589" width="6.53061" height="0.816326" stroke="#675B4F" stroke-width="0.816326"/>
</svg>
