<svg width="46" height="31" viewBox="0 0 46 31" fill="none" xmlns="http://www.w3.org/2000/svg">
<rect x="4.88672" y="6.9209" width="19.2096" height="1.35778" rx="0.678891" stroke="#675B4F"/>
<path d="M6.32461 8.48633C4.70011 10.4687 1.35547 15.8069 1.35547 20.132C1.35547 21.5789 1.71909 22.9956 2.26387 24.296C4.00208 28.4451 8.72393 29.9986 13.2225 29.9986H15.5022" stroke="#675B4F"/>
<path d="M22.8863 8.48633C24.5495 10.4687 27.9668 15.8069 27.9668 20.132C27.9668 21.6391 27.5629 23.1134 26.9662 24.4576C25.1706 28.5029 20.5306 29.9986 16.1048 29.9986H13.4833" stroke="#675B4F"/>
<path d="M2.36719 14.8418H26.9555" stroke="#675B4F"/>
<path d="M1.35547 17.8726H27.6279" stroke="#675B4F"/>
<path d="M1.35547 19.2202L27.9647 19.2202" stroke="#675B4F"/>
<path d="M2.36719 14.8418H26.9555" stroke="#675B4F"/>
<path d="M16.1777 6.75778L20.6132 2.249C21.3422 1.50799 21.9552 0.851425 22.969 1.08099V1.08099C24.3859 1.40184 23.642 3.73147 22.5719 4.71402L20.346 6.75778" stroke="#675B4F"/>
<path d="M18.2644 6.9457C19.4011 5.87774 21.3919 3.94972 21.6957 3.74396" stroke="#675B4F"/>
<path d="M45.209 21.3524C44.2987 24.9397 41.3856 27.5 38 27.5C34.6144 27.5 31.7013 24.9397 30.791 21.3524C30.5538 20.4175 31.3489 19.5 32.5 19.5L43.5 19.5C44.6511 19.5 45.4462 20.4175 45.209 21.3524Z" stroke="#675B4F"/>
<path d="M34.7832 29.5C34.9525 29.344 35.1979 29.1863 35.5211 29.0427C36.2578 28.7153 37.3106 28.5 38.5 28.5C39.6894 28.5 40.7422 28.7153 41.4789 29.0427C41.8021 29.1863 42.0475 29.344 42.2168 29.5L34.7832 29.5Z" stroke="#675B4F"/>
<path d="M30.5 21.5H32.5H34.5" stroke="#675B4F"/>
<path d="M31 23H32.5H34" stroke="#675B4F"/>
</svg>
